<?xml version="1.0" encoding="UTF-8" standalone="no"?>
<svg width="28px" height="28px" viewBox="0 0 28 28" version="1.1" xmlns="http://www.w3.org/2000/svg" xmlns:xlink="http://www.w3.org/1999/xlink">
    <!-- Generator: Sketch 47 (45396) - http://www.bohemiancoding.com/sketch -->
    <title>icons/close_orange</title>
    <desc>Created with Sketch.</desc>
    <defs>
        <filter x="-1.1%" y="-7.9%" width="102.2%" height="116.3%" filterUnits="objectBoundingBox" id="filter-1">
            <feOffset dx="0" dy="0" in="SourceAlpha" result="shadowOffsetOuter1"></feOffset>
            <feGaussianBlur stdDeviation="5" in="shadowOffsetOuter1" result="shadowBlurOuter1"></feGaussianBlur>
            <feColorMatrix values="0 0 0 0 0.376470588   0 0 0 0 0.376470588   0 0 0 0 0.376470588  0 0 0 0.15 0" type="matrix" in="shadowBlurOuter1" result="shadowMatrixOuter1"></feColorMatrix>
            <feMerge>
                <feMergeNode in="shadowMatrixOuter1"></feMergeNode>
                <feMergeNode in="SourceGraphic"></feMergeNode>
            </feMerge>
        </filter>
    </defs>
    <g id="Complementary" stroke="none" stroke-width="1" fill="none" fill-rule="evenodd">
        <g id="Cookie" transform="translate(-1035.000000, -304.000000)" fill=" #000066">
            <g id="Footer" filter="url(#filter-1)" transform="translate(0.000000, 148.000000)">
                <g id="Cookies" transform="translate(0.000000, 150.000000)">
                    <g id="content" transform="translate(377.000000, 5.000000)">
                        <g id="icons/close_orange" transform="translate(657.000000, 0.000000)">
                            <path d="M14.3699574,14.3699574 L9.56034338,14.3699574 L9,14.3699574 L9,15.4906442 L9.56034338,15.4906442 L14.3699574,15.4906442 L14.3699574,20.3002582 L14.3699574,20.8606016 L15.4906442,20.8606016 L15.4906442,20.3002582 L15.4906442,15.4906442 L20.3002582,15.4906442 L20.8606016,15.4906442 L20.8606016,14.3699574 L20.3002582,14.3699574 L15.4906442,14.3699574 L15.4906442,9.56034338 L15.4906442,9 L14.3699574,9 L14.3699574,9.56034338 L14.3699574,14.3699574 Z" transform="translate(14.930301, 14.930301) rotate(-45.000000) translate(-14.930301, -14.930301) "></path>
                        </g>
                    </g>
                </g>
            </g>
        </g>
    </g>
</svg>