<svg id="Layer_1" data-name="Layer 1" xmlns="http://www.w3.org/2000/svg" viewBox="0 0 16 16"><defs><style>.cls-1{fill:#ff5800;}</style></defs><title>Artboard 19 copy 3</title><rect class="cls-1" x="0.4048" y="5.3928" width="3.1168" height="9.88"/><path class="cls-1" d="M12.0432,5.2976A3.2052,3.2052,0,0,0,8.93,6.9424v-1.55H5.4264c.0456.8216,0,9.88,0,9.88H8.93V9.9256a2.23,2.23,0,0,1,.076-.8072,1.7849,1.7849,0,0,1,1.688-1.2128c1.2168,0,1.77.916,1.77,2.2528V15.272H16V9.7776c0-3.0592-1.7408-4.48-3.9568-4.48"/><path class="cls-1" d="M1.9056.7272A1.7427,1.7427,0,0,0,0,2.444,1.7246,1.7246,0,0,0,1.8616,4.1568h.0216A1.7375,1.7375,0,0,0,3.7856,2.4416,1.731,1.731,0,0,0,1.9056.7272"/></svg>