<svg id="Layer_1" data-name="Layer 1" xmlns="http://www.w3.org/2000/svg" viewBox="0 0 16 16"><defs><style>.cls-1{fill:#fa5e0c;}</style></defs><title>Artboard 19 copy 4</title><path class="cls-1" d="M8.0008-.0168A8.02,8.02,0,0,0,4.79,15.3434a7.0563,7.0563,0,0,1,.1387-1.8415c.1539-.65,1.0286-4.3684,1.0286-4.3684a3.098,3.098,0,0,1-.2541-1.2667c0-1.1913.687-2.0772,1.5432-2.0772A1.0737,1.0737,0,0,1,8.3255,6.9931a17.2842,17.2842,0,0,1-.7063,2.8452,1.24,1.24,0,0,0,1.2619,1.544c1.5168,0,2.5373-1.95,2.5373-4.26A2.9977,2.9977,0,0,0,8.09,4.05,3.791,3.791,0,0,0,4.1511,7.8878a2.3225,2.3225,0,0,0,.5267,1.5729.39.39,0,0,1,.1146.4473c-.0385.1475-.1251.5011-.1619.6421a.2755.2755,0,0,1-.4.202,3.09,3.09,0,0,1-1.64-3.064c0-2.2768,1.916-5.01,5.7176-5.01a4.7866,4.7866,0,0,1,5.0642,4.5936c0,3.145-1.7445,5.4939-4.3171,5.4939a2.2949,2.2949,0,0,1-1.9545-.9981s-.4642,1.8455-.5628,2.2038a6.7115,6.7115,0,0,1-.8057,1.7172A8.0146,8.0146,0,1,0,8.0008-.0168"/></svg>