<svg width="40" height="40" viewBox="0 0 40 40" xmlns="http://www.w3.org/2000/svg"><path d="M29.45 12.308c-.805.49-1.687.834-2.61 1.02C26.076 12.483 24.99 12 23.848 12c-2.294.03-4.13 1.913-4.103 4.207 0 .322.034.644.106.958-3.32-.18-6.403-1.783-8.457-4.398-.366.646-.558 1.376-.556 2.12-.007 1.395.676 2.705 1.825 3.5-.653-.02-1.292-.2-1.86-.525v.052c-.017 1.982 1.358 3.704 3.294 4.126-.352.1-.716.148-1.08.146-.26 0-.52-.023-.774-.074.515 1.698 2.06 2.874 3.834 2.92-1.442 1.167-3.242 1.804-5.097 1.803-.328 0-.655-.02-.98-.058 1.867 1.23 4.054 1.888 6.29 1.888 7.548 0 11.675-6.41 11.675-11.97 0-.185-.004-.366-.01-.545.806-.598 1.5-1.336 2.045-2.18-.746.343-1.54.566-2.355.663.863-.532 1.503-1.358 1.804-2.325" fill="#FFF" fill-rule="evenodd"/></svg>