<svg id="Layer_1" data-name="Layer 1" xmlns="http://www.w3.org/2000/svg" viewBox="0 0 16 16"><defs><style>.cls-1{fill:#ff5800;}</style></defs><title>Artboard 19 copy 2</title><path class="cls-1" d="M5.081,6.9923v2.016s1.9526-.0026,2.7475-.0026A2.5125,2.5125,0,0,1,5.081,11.0243,2.9781,2.9781,0,0,1,2.1133,8,2.9788,2.9788,0,0,1,5.081,4.975a2.8718,2.8718,0,0,1,1.9738.7437C7.4726,5.3,7.4381,5.24,8.5011,4.2339a5.0866,5.0866,0,1,0-3.42,8.857c4.1958,0,5.22-3.6608,4.8819-6.0992H5.081Z"/><polygon class="cls-1" points="14.239 7.093 14.239 5.328 12.981 5.328 12.981 7.093 11.17 7.093 11.17 8.354 12.981 8.354 12.981 10.169 14.239 10.169 14.239 8.354 16 8.354 16 7.093 14.239 7.093"/></svg>