<svg id="Layer_1" data-name="Layer 1" xmlns="http://www.w3.org/2000/svg" viewBox="0 0 16 16"><defs><style>.cls-1{fill:#fe5800;}</style></defs><title>Global English</title><path class="cls-1" d="M8,0H7.66A7.79,7.79,0,0,0,0,7.84,8.08,8.08,0,0,0,8,16,8,8,0,1,0,8,0Zm7.21,7.84H11.68A10.43,10.43,0,0,0,11.34,5h3.21A7.12,7.12,0,0,1,15.21,7.84ZM14.13,4.17h-3A11.32,11.32,0,0,0,9.27.87,7.23,7.23,0,0,1,14.13,4.17ZM5.08,7.84A9.48,9.48,0,0,1,5.45,5h5.1a9.48,9.48,0,0,1,.37,2.89Zm5.79.79a11.39,11.39,0,0,1-.7,2.89H5.83a11.39,11.39,0,0,1-.7-2.89ZM7.85.76h.3a11,11,0,0,1,2.13,3.41H5.71A11,11,0,0,1,7.85.76ZM6.73.86A11.32,11.32,0,0,0,4.89,4.17H1.78A7.06,7.06,0,0,1,6.73.86ZM.78,7.81A7.09,7.09,0,0,1,1.37,5H4.66a10.43,10.43,0,0,0-.34,2.89H.78Zm0,.82H4.36A12.17,12.17,0,0,0,5,11.51H1.76A7.46,7.46,0,0,1,.83,8.63ZM2.28,12.3h3a16.11,16.11,0,0,0,1.53,2.79A7.17,7.17,0,0,1,2.28,12.3ZM8,15.19h-.1A16.32,16.32,0,0,1,6.16,12.3H9.84a16.32,16.32,0,0,1-1.71,2.88Zm1.18-.1a16.09,16.09,0,0,0,1.53-2.79h3.06A7.24,7.24,0,0,1,9.16,15.09Zm5.11-3.57H11a12.16,12.16,0,0,0,.65-2.89h3.54A7.19,7.19,0,0,1,14.27,11.51Z"/></svg>