<?xml version="1.0" encoding="UTF-8" standalone="no"?>
<svg width="16px" height="16px" viewBox="0 0 16 16" version="1.1" xmlns="http://www.w3.org/2000/svg" xmlns:xlink="http://www.w3.org/1999/xlink">
    <!-- Generator: Sketch 42 (36781) - http://www.bohemiancoding.com/sketch -->
    <title>global-orange</title>
    <desc>Created with Sketch.</desc>
    <defs></defs>
    <g id="Page-1" stroke="none" stroke-width="1" fill="none" fill-rule="evenodd">
        <g id="Global-Navigation-Modules" transform="translate(-532.000000, -2031.000000)" fill="#FF5200">
            <g id="Header-search-Copy" transform="translate(0.000000, 1864.000000)">
                <g id="Utilities-Nav" transform="translate(512.000000, 150.000000)">
                    <g id="Country-selector">
                        <path d="M28,17 L27.66,17 C23.3890192,17.0711925 19.9719897,20.5685177 20,24.84 C19.9786773,26.9829804 20.8095779,29.0466493 22.3098915,30.5769691 C23.8102051,32.1072889 25.8570175,32.9788874 28,33 C32.418278,33 36,29.418278 36,25 C36,20.581722 32.418278,17 28,17 L28,17 Z M35.21,24.84 L31.68,24.84 C31.6976253,23.8822115 31.5832165,22.9265609 31.34,22 L34.55,22 C34.9635526,22.8910032 35.1882635,23.857941 35.21,24.84 L35.21,24.84 Z M34.13,21.17 L31.13,21.17 C30.6997578,19.9733347 30.0709555,18.8577178 29.27,17.87 C31.2840183,18.2326338 33.0500254,19.4317745 34.13,21.17 L34.13,21.17 Z M25.08,24.84 C25.0587979,23.8800584 25.1835546,22.9224664 25.45,22 L30.55,22 C30.8215166,22.9385121 30.9463237,23.9133561 30.92,24.89 L25.08,24.84 Z M30.87,25.63 C30.7639573,26.6197832 30.5286189,27.5913944 30.17,28.52 L25.83,28.52 C25.4713811,27.5913944 25.2360427,26.6197832 25.13,25.63 L30.87,25.63 Z M27.85,17.76 L28.15,17.76 C29.0634642,18.7561573 29.785523,19.9121293 30.28,21.17 L25.71,21.17 C26.2074845,19.9113644 26.9329658,18.7553405 27.85,17.76 Z M26.73,17.86 C25.9351516,18.8521841 25.3131156,19.9711729 24.89,21.17 L21.78,21.17 C22.8612223,19.3907597 24.6726544,18.1794788 26.73,17.86 L26.73,17.86 Z M20.78,24.81 C20.7829601,23.8428972 20.9837434,22.8866242 21.37,22 L24.66,22 C24.41218,22.9427132 24.2977331,23.9155119 24.32,24.89 L20.78,24.89 L20.78,24.81 Z M20.78,25.63 L24.36,25.63 C24.4557517,26.6124016 24.6706638,27.579506 25,28.51 L21.76,28.51 C21.2564804,27.6236257 20.9399682,26.6434586 20.83,25.63 L20.78,25.63 Z M22.28,29.3 L25.28,29.3 C25.6966805,30.2782112 26.2091797,31.2127687 26.81,32.09 C24.9980734,31.7753675 23.3763165,30.7765371 22.28,29.3 L22.28,29.3 Z M28,32.19 L27.9,32.19 C27.2217282,31.2893575 26.638614,30.3208516 26.16,29.3 L29.84,29.3 C29.3702811,30.3161056 28.7972641,31.2811868 28.13,32.18 L28,32.19 Z M29.18,32.09 C29.7809322,31.2128374 30.2934377,30.2782686 30.71,29.3 L33.77,29.3 C32.6495492,30.7885079 30.9984056,31.7877901 29.16,32.09 L29.18,32.09 Z M34.29,28.52 L31,28.52 C31.3336303,27.5867551 31.5519161,26.6162225 31.65,25.63 L35.19,25.63 C35.0909193,26.6443547 34.7773206,27.6260552 34.27,28.51 L34.29,28.52 Z" id="global-orange"></path>
                    </g>
                </g>
            </g>
        </g>
    </g>
</svg>