<?xml version="1.0" encoding="utf-8"?>
<!-- Generator: Adobe Illustrator 22.0.1, SVG Export Plug-In . SVG Version: 6.00 Build 0)  -->
<svg version="1.1" id="Layer_1" xmlns="http://www.w3.org/2000/svg" xmlns:xlink="http://www.w3.org/1999/xlink" x="0px" y="0px"
	 viewBox="0 0 40 40" style="enable-background:new 0 0 40 40;" xml:space="preserve">
<style type="text/css">
	.st0{fill:#FFFFFF;}
</style>
<title>Instagram</title>
<desc>Created with Sketch.</desc>
<g id="Redlines">
	<g id="Featured---Tablet" transform="translate(-540.000000, -202.000000)">
		<g id="Feature-Module" transform="translate(0.000000, 130.000000)">
			<g id="Blog-Nav-Module" transform="translate(0.000000, 52.000000)">
				<g id="Share" transform="translate(358.000000, 15.000000)">
					<g id="Instagram" transform="translate(177.000000, 0.000000)">
						<g id="instagram-logo" transform="translate(5.000000, 5.000000)">
							<g id="Layer_1_1_">
								<g id="Group">
									<path id="Shape" class="st0" d="M24.4,10h-8.9c-3,0-5.5,2.5-5.5,5.5v8.9c0,3,2.5,5.5,5.5,5.5h8.9c3,0,5.5-2.5,5.5-5.5v-8.9
										C29.9,12.5,27.4,10,24.4,10L24.4,10z M28.1,24.4c0,2.1-1.7,3.7-3.7,3.7h-8.9c-2.1,0-3.7-1.7-3.7-3.7v-8.9
										c0-2.1,1.7-3.7,3.7-3.7h8.9c2.1,0,3.7,1.7,3.7,3.7L28.1,24.4L28.1,24.4z"/>
									<path id="Shape_1_" class="st0" d="M19.9,14.8c-2.8,0-5.1,2.3-5.1,5.1c0,2.8,2.3,5.1,5.1,5.1s5.1-2.3,5.1-5.1
										C25.1,17.1,22.8,14.8,19.9,14.8L19.9,14.8z M19.9,23.3c-1.9,0-3.4-1.5-3.4-3.4c0-1.9,1.5-3.4,3.4-3.4
										c1.9,0,3.4,1.5,3.4,3.4C23.3,21.8,21.8,23.3,19.9,23.3L19.9,23.3z"/>
									<path id="Shape_2_" class="st0" d="M25.3,13.3c-0.3,0-0.7,0.1-0.9,0.4c-0.2,0.2-0.4,0.6-0.4,0.9c0,0.3,0.1,0.7,0.4,0.9
										c0.2,0.2,0.6,0.4,0.9,0.4c0.3,0,0.7-0.1,0.9-0.4c0.2-0.2,0.4-0.6,0.4-0.9c0-0.3-0.1-0.7-0.4-0.9
										C26,13.5,25.6,13.3,25.3,13.3L25.3,13.3z"/>
								</g>
							</g>
						</g>
					</g>
				</g>
			</g>
		</g>
	</g>
</g>
</svg>
