<?xml version="1.0" encoding="UTF-8" standalone="no"?>
<svg width="20px" height="19px" viewBox="0 0 20 19" version="1.1" xmlns="http://www.w3.org/2000/svg" xmlns:xlink="http://www.w3.org/1999/xlink">
    <!-- Generator: Sketch 41.2 (35397) - http://www.bohemiancoding.com/sketch -->
    <title>header-linkedin_white</title>
    <desc>Created with Sketch.</desc>
    <defs></defs>
    <g id="Page-1" stroke="none" stroke-width="1" fill="none" fill-rule="evenodd">
        <g id="Global-Navigation-Modules" transform="translate(-1285.000000, -316.000000)" fill="#FFFFFF">
            <g id="Header-Menu" transform="translate(0.000000, 150.000000)">
                <g id="Utilities-Nav" transform="translate(543.000000, 155.000000)">
                    <g id="Share" transform="translate(565.000000, 0.000000)">
                        <g id="header-linkedin_white" transform="translate(167.000000, 0.000000)">
                            <path d="M10.506,16.8415645 L14.402,16.8415645 L14.402,29.1915645 L10.506,29.1915645 L10.506,16.8415645 Z M25.054,16.7225645 C22.821,16.7225645 21.42,17.9325645 21.162,18.7785645 L21.162,16.8415645 L16.783,16.8415645 C16.84,17.8685645 16.783,29.1915645 16.783,29.1915645 L21.162,29.1915645 L21.162,22.5075645 C21.1317596,22.1682518 21.1639581,21.8262699 21.257,21.4985645 C21.5632099,20.5935931 22.411628,19.9840187 23.367,19.9825645 C24.888,19.9825645 25.58,21.1275645 25.58,22.7985645 L25.58,29.1905645 L30,29.1905645 L30,22.3225645 C30,18.4985645 27.824,16.7225645 25.054,16.7225645 Z M12.382,11.0095645 C11.7754603,10.9525619 11.1727658,11.1521615 10.7201498,11.5599339 C10.2675337,11.9677064 10.0063608,12.5463854 10,13.1555645 C10.0022243,13.7556801 10.254496,14.3277086 10.6961276,14.73404 C11.1377592,15.1403714 11.7287759,15.3442264 12.327,15.2965645 L12.354,15.2965645 C12.9599879,15.354351 13.5624123,15.1551734 14.0145234,14.7475509 C14.4666346,14.3399283 14.7269292,13.7612803 14.732,13.1525645 C14.7284653,12.5485334 14.472596,11.9734787 14.0262694,11.5664667 C13.5799427,11.1594548 12.9837974,10.9575447 12.382,11.0095645 Z"></path>
                        </g>
                    </g>
                </g>
            </g>
        </g>
    </g>
</svg>