<?xml version="1.0" encoding="UTF-8"?>
<svg width="20px" height="20px" viewBox="0 0 20 20" version="1.1" xmlns="http://www.w3.org/2000/svg" xmlns:xlink="http://www.w3.org/1999/xlink">
    <!-- Generator: Sketch 42 (36781) - http://www.bohemiancoding.com/sketch -->
    <title>hero_card-read_more</title>
    <desc>Created with Sketch.</desc>
    <defs></defs>
    <g id="Redlines" stroke="none" stroke-width="1" fill="none" fill-rule="evenodd">
        <g id="Hero-Modules" transform="translate(-139.000000, -2064.000000)" stroke-width="0.2" stroke="#FF520D" fill="#FF5200">
            <g id="Hero-Module-A---Space-with-header-Copy" transform="translate(0.000000, 1235.000000)">
                <g id="Cards" transform="translate(0.000000, 603.000000)">
                    <g id="Avanade-and-sitecore" transform="translate(120.000000, 0.000000)">
                        <g id="hero_card-read_more" transform="translate(20.000000, 227.000000)">
                            <g id="Layer_1">
                                <path d="M9,18 C4.02943725,18 4.4408921e-16,13.9705627 0,9 C-4.4408921e-16,4.02943725 4.02943725,1.77635684e-15 9,0 C13.9705627,-8.8817842e-16 18,4.02943725 18,9 C17.9944889,13.9682782 13.9682782,17.9944889 9,18 Z M9,0.7965 C5.67995266,0.787353495 2.68172975,2.78026258 1.40485991,5.84496508 C0.127990081,8.90966758 0.824257291,12.4418396 3.16865372,14.7927125 C5.51305015,17.1435854 9.04328793,17.8495942 12.1115013,16.5811839 C15.1797147,15.3127736 17.1808874,12.3200599 17.1809,9 C17.181962,4.47771136 13.5222744,0.80791367 9,0.7965 L9,0.7965 Z" id="Shape"></path>
                                <polygon id="Shape" points="7.5 5 8.5 5 11.5 9.0371 8.5 13.0003 7.5 13.0003 10.5 9.0371"></polygon>
                            </g>
                        </g>
                    </g>
                </g>
            </g>
        </g>
    </g>
</svg>