<svg width="40" height="40" viewBox="0 0 40 40" xmlns="http://www.w3.org/2000/svg"><path d="M20 10c-4.737.012-8.818 3.33-9.787 7.958-.97 4.627 1.44 9.3 5.773 11.205-.043-.77.015-1.543.174-2.298l1.285-5.45c-.216-.498-.324-1.037-.317-1.58 0-1.486.858-2.59 1.928-2.59.387-.006.758.156 1.016.444.258.287.38.672.333 1.055-.193 1.206-.488 2.394-.883 3.55-.12.475-.01.98.302 1.36.31.38.785.59 1.275.566 1.895 0 3.17-2.432 3.17-5.314.034-1.083-.405-2.128-1.203-2.864-.798-.735-1.877-1.09-2.956-.968-1.298-.05-2.56.433-3.49 1.338-.932.905-1.45 2.152-1.432 3.45-.03.712.204 1.41.658 1.962.165.135.223.36.143.558-.05.184-.157.625-.203.8-.017.11-.086.205-.185.255-.1.05-.217.05-.315-.002-1.405-.734-2.217-2.25-2.05-3.823 0-2.84 2.395-6.25 7.146-6.25 1.605-.094 3.18.46 4.37 1.538 1.192 1.078 1.898 2.59 1.96 4.193 0 3.923-2.18 6.854-5.396 6.854-.973.025-1.893-.443-2.443-1.245 0 0-.58 2.302-.703 2.75-.232.757-.57 1.478-1.006 2.14 3.76 1.102 7.82-.087 10.387-3.043 2.57-2.957 3.173-7.136 1.55-10.696-1.626-3.56-5.18-5.848-9.1-5.854" fill-rule="nonzero" fill="#FFF"/></svg>