<?xml version="1.0" encoding="UTF-8" standalone="no"?>
<svg width="25px" height="16px" viewBox="0 0 25 16" version="1.1" xmlns="http://www.w3.org/2000/svg" xmlns:xlink="http://www.w3.org/1999/xlink">
    <!-- Generator: Sketch 41.2 (35397) - http://www.bohemiancoding.com/sketch -->
    <title>header-googleplus_white</title>
    <desc>Created with Sketch.</desc>
    <defs></defs>
    <g id="Page-1" stroke="none" stroke-width="1" fill="none" fill-rule="evenodd">
        <g id="Global-Navigation-Modules" transform="translate(-1242.000000, -317.000000)" fill="#FFFFFF">
            <g id="Header-Menu" transform="translate(0.000000, 150.000000)">
                <g id="Utilities-Nav" transform="translate(543.000000, 155.000000)">
                    <g id="Share" transform="translate(565.000000, 0.000000)">
                        <g id="header-googleplus_white" transform="translate(127.000000, 0.000000)">
                            <path d="M14.939736,18.366882 L14.939736,21.516882 C14.939736,21.516882 17.990736,21.512882 19.232736,21.512882 C18.560736,23.555882 17.514736,24.666882 14.939736,24.666882 C13.6959088,24.6626728 12.5055393,24.1606678 11.6343214,23.2729161 C10.7631034,22.3851643 10.2835634,21.1855686 10.302736,19.941882 C10.2833223,18.697939 10.7627204,17.4979983 11.6339328,16.6098765 C12.5051451,15.7217548 13.6956497,15.2193814 14.939736,15.214882 C16.0779119,15.1970186 17.1803372,15.6123941 18.023736,16.376882 C18.676736,15.722882 18.622736,15.628882 20.283736,14.056882 C17.6542679,11.6755547 13.7650252,11.3251592 10.7522698,13.1981588 C7.73951448,15.0711584 6.33281819,18.7139859 7.30484343,22.1257287 C8.27686867,25.5374716 11.3922289,27.891939 14.939736,27.895882 C21.495736,27.895882 23.096736,22.175882 22.567736,18.365882 L14.939736,18.365882 L14.939736,18.366882 Z M29.249736,18.524882 L29.249736,15.766882 L27.283736,15.766882 L27.283736,18.524882 L24.453736,18.524882 L24.453736,20.493882 L27.283736,20.493882 L27.283736,23.329882 L29.249736,23.329882 L29.249736,20.493882 L32.000736,20.493882 L32.000736,18.524882 L29.249736,18.524882 Z"></path>
                        </g>
                    </g>
                </g>
            </g>
        </g>
    </g>
</svg>