<?xml version="1.0" encoding="UTF-8" standalone="no"?>
<svg width="18px" height="18px" viewBox="0 0 18 18" version="1.1" xmlns="http://www.w3.org/2000/svg" xmlns:xlink="http://www.w3.org/1999/xlink">
    <!-- Generator: Sketch 42 (36781) - http://www.bohemiancoding.com/sketch -->
    <title>hero_card-play_video</title>
    <desc>Created with Sketch.</desc>
    <defs></defs>
    <g id="Redlines" stroke="none" stroke-width="1" fill="none" fill-rule="evenodd">
        <g id="Mobile-Hero-Modules" transform="translate(-98.000000, -1520.000000)">
            <g id="Hero-Module-B-video" transform="translate(0.000000, 1267.000000)">
                <g id="Module" transform="translate(0.000000, 56.000000)">
                    <g id="Banner" transform="translate(35.000000, 50.000000)">
                        <g id="Button" transform="translate(38.000000, 133.000000)">
                            <g id="hero_card-play_video" transform="translate(25.000000, 14.000000)">
                                <g>
                                    <path d="M9,18 C4.02943725,18 4.4408921e-16,13.9705627 0,9 C-4.4408921e-16,4.02943725 4.02943725,1.77635684e-15 9,0 C13.9705627,-8.8817842e-16 18,4.02943725 18,9 C17.9944889,13.9682782 13.9682782,17.9944889 9,18 Z M9,0.7965 C5.67995266,0.787353495 2.68172975,2.78026258 1.40485991,5.84496508 C0.127990081,8.90966758 0.824257291,12.4418396 3.16865372,14.7927125 C5.51305015,17.1435854 9.04328793,17.8495942 12.1115013,16.5811839 C15.1797147,15.3127736 17.1808874,12.3200599 17.1809,9 C17.181962,4.47771136 13.5222744,0.80791367 9,0.7965 L9,0.7965 Z" id="Shape" fill="#FF5200"></path>
                                    <polygon id="Triangle" stroke="#FF5200" stroke-linejoin="round" points="13 9 7 14 7 4"></polygon>
                                </g>
                            </g>
                        </g>
                    </g>
                </g>
            </g>
        </g>
    </g>
</svg>