<?xml version="1.0" encoding="utf-8"?>
<!-- Generator: Adobe Illustrator 15.0.0, SVG Export Plug-In . SVG Version: 6.00 Build 0)  -->
<!DOCTYPE svg PUBLIC "-//W3C//DTD SVG 1.1//EN" "http://www.w3.org/Graphics/SVG/1.1/DTD/svg11.dtd">
<svg version="1.1" id="Layer_1" xmlns="http://www.w3.org/2000/svg" xmlns:xlink="http://www.w3.org/1999/xlink" x="0px" y="0px"
	 width="21px" height="21px" viewBox="0 0 21 21" enable-background="new 0 0 21 21" xml:space="preserve">
<g>
	<path fill=" #000066" d="M10.855,10.684l8.596-6.694c-0.237-0.099-0.506-0.156-0.803-0.156H2.352c-0.266,0-0.51,0.045-0.729,0.125
		L10.855,10.684z"/>
	<path fill=" #000066" d="M11.325,12.195c-0.134,0.104-0.294,0.156-0.455,0.156c-0.152,0-0.306-0.047-0.436-0.142L0.601,5.046
		C0.539,5.242,0.5,5.453,0.5,5.686v9.629c0,1.031,0.74,1.853,1.787,1.853h16.361c1.03,0,1.852-0.821,1.852-1.853V5.686
		c0-0.206-0.033-0.394-0.082-0.572L11.325,12.195z"/>
</g>
</svg>
