<?xml version="1.0" encoding="utf-8"?>
<!-- Generator: Adobe Illustrator 15.0.0, SVG Export Plug-In . SVG Version: 6.00 Build 0)  -->
<!DOCTYPE svg PUBLIC "-//W3C//DTD SVG 1.1//EN" "http://www.w3.org/Graphics/SVG/1.1/DTD/svg11.dtd">
<svg version="1.1" id="Layer_1" xmlns="http://www.w3.org/2000/svg" xmlns:xlink="http://www.w3.org/1999/xlink" x="0px" y="0px"
	 width="21px" height="21px" viewBox="0 0 21 21" enable-background="new 0 0 21 21" xml:space="preserve">
<path fill="#FA5E0C" d="M10.501,0.5c-5.511,0-9.98,4.477-9.98,10.001c0,4.095,2.458,7.611,5.975,9.159
	c-0.029-0.698-0.005-1.536,0.173-2.297c0.192-0.811,1.283-5.449,1.283-5.449s-0.317-0.639-0.317-1.58
	c0-1.486,0.857-2.591,1.925-2.591c0.907,0,1.346,0.685,1.346,1.501c0,0.916-0.582,2.282-0.881,3.549
	c-0.25,1.061,0.53,1.926,1.574,1.926c1.892,0,3.165-2.433,3.165-5.314c0-2.193-1.475-3.832-4.152-3.832
	c-3.027,0-4.913,2.26-4.913,4.787c0,0.873,0.257,1.486,0.657,1.962c0.185,0.218,0.209,0.306,0.143,0.558
	c-0.048,0.184-0.156,0.625-0.202,0.801c-0.067,0.254-0.271,0.346-0.499,0.252C4.4,13.36,3.752,11.83,3.752,10.111
	c0-2.84,2.39-6.249,7.132-6.249c3.811,0,6.317,2.766,6.317,5.73c0,3.923-2.176,6.853-5.385,6.853c-1.078,0-2.091-0.584-2.438-1.245
	c0,0-0.579,2.302-0.702,2.749c-0.211,0.77-0.626,1.541-1.005,2.142c0.897,0.265,1.846,0.409,2.829,0.409
	c5.51,0,9.979-4.477,9.979-9.999C20.479,4.977,16.011,0.5,10.501,0.5"/>
</svg>
