<svg id="Layer_1" data-name="Layer 1" xmlns="http://www.w3.org/2000/svg" viewBox="0 0 16 16"><defs><style>.cls-1{fill:#ff5800;}</style></defs><title>Artboard 19 copy</title><path class="cls-1" d="M15.5592,1.58a6.4838,6.4838,0,0,1-2.0864.816A3.2381,3.2381,0,0,0,11.0776,1.334,3.3255,3.3255,0,0,0,7.7952,4.7,3.3893,3.3893,0,0,0,7.88,5.466,9.24,9.24,0,0,1,1.1144,1.9476,3.4218,3.4218,0,0,0,.67,3.6428a3.3846,3.3846,0,0,0,1.46,2.8A3.174,3.174,0,0,1,.6424,6.0236v.0416A3.3472,3.3472,0,0,0,3.2768,9.366a3.1522,3.1522,0,0,1-.8648.1168,3.0881,3.0881,0,0,1-.6184-.0592A3.2938,3.2938,0,0,0,4.8608,11.76,6.4756,6.4756,0,0,1,.7832,13.202,6.5046,6.5046,0,0,1,0,13.1556a9.138,9.138,0,0,0,5.032,1.51,9.4032,9.4032,0,0,0,9.34-9.576c0-.148-.0032-.2928-.0088-.436A6.6887,6.6887,0,0,0,16,2.9108a6.317,6.317,0,0,1-1.884.53,3.3533,3.3533,0,0,0,1.4432-1.86"/></svg>