<?xml version="1.0" encoding="UTF-8" standalone="no"?>
<svg width="20px" height="17px" viewBox="0 0 20 17" version="1.1" xmlns="http://www.w3.org/2000/svg" xmlns:xlink="http://www.w3.org/1999/xlink">
    <!-- Generator: Sketch 41.2 (35397) - http://www.bohemiancoding.com/sketch -->
    <title>header-twitter_white</title>
    <desc>Created with Sketch.</desc>
    <defs></defs>
    <g id="Page-1" stroke="none" stroke-width="1" fill="none" fill-rule="evenodd">
        <g id="Global-Navigation-Modules" transform="translate(-1205.000000, -317.000000)" fill="#FFFFFF">
            <g id="Header-Menu" transform="translate(0.000000, 150.000000)">
                <g id="Utilities-Nav" transform="translate(543.000000, 155.000000)">
                    <g id="Share" transform="translate(565.000000, 0.000000)">
                        <g id="header-twitter_white" transform="translate(87.000000, 0.000000)">
                            <path d="M29.449,12.3079 C28.645436,12.7966499 27.762932,13.141801 26.841,13.3279 C26.0746563,12.4832176 24.987513,12.0010473 23.847,12 C21.5526278,12.0295832 19.7161546,13.912606 19.744,16.207 C19.7427751,16.5293259 19.7783385,16.8507388 19.85,17.165 C16.5293026,16.9848715 13.4473859,15.3821436 11.393,12.767 C11.0268587,13.4130904 10.8352403,14.1433768 10.837,14.886 C10.8304583,16.2823529 11.5133454,17.5919994 12.662,18.386 C12.0086298,18.3671345 11.3700416,18.1871343 10.803,17.862 L10.803,17.914 C10.7850328,19.8956312 12.1597258,21.6180676 14.096,22.04 C13.744179,22.1385529 13.3803598,22.1876903 13.015,22.186 C12.7555009,22.1873799 12.4965241,22.1625878 12.242,22.112 C12.7573326,23.8097648 14.3023321,24.9864467 16.076,25.032 C14.6338566,26.199407 12.8344287,26.8359321 10.979,26.835 C10.6517969,26.835383 10.324869,26.8160144 10,26.777 C11.8666476,28.0084874 14.0537231,28.6649577 16.29,28.665 C23.838,28.665 27.965,22.255 27.965,16.695 C27.965,16.51 27.961,16.329 27.954,16.15 C28.7613489,15.5524596 29.4544219,14.8143334 30,13.971 C29.2541556,14.3126633 28.459623,14.5360097 27.645,14.633 C28.5075826,14.1014717 29.1484433,13.2754933 29.449,12.3079"></path>
                        </g>
                    </g>
                </g>
            </g>
        </g>
    </g>
</svg>