<svg height="20" viewBox="0 0 17 20" width="17" xmlns="http://www.w3.org/2000/svg"><g fill="#ff5800"><path d="M15.867.6c-.8 1.733-2.334 2.067-2.334 2.067-1.466.4-2 .933-2 .933-1.466 1.533-.333 3.333-.333 3.333 3.2-.733 4.4-3.4 4.4-3.4-.133 1.8-4 3.934-4 3.934 1.267 1.266 2.467 1.066 3.267.6 1.066-.667 1.6-2 1.6-2 1.066-3.134-.6-5.467-.6-5.467zM7.933.133C9.533 2.8 10.4 5.2 10.6 5.8 10.2 1.667 7.933.133 7.933.133zM10.6 5.8c.067.533.6 9.933-4.333 11.867 0 0 .466.066 1 .066 0 0 6.333-4 3.4-11.8z"/><path d="M12.2 12.467c0 .933-.2 1.866-.667 2.666-.466.8-1.066 1.467-1.8 1.934-.8.466-1.6.666-2.533.666s-1.733-.2-2.533-.666c-.8-.467-1.4-1.067-1.8-1.934-.467-.8-.667-1.733-.667-2.666 0-1.467.467-2.734 1.467-3.8 1-1.067 2.2-1.534 3.533-1.534.667 0 1.267.134 1.867.334.066-.6.266-1.134.533-1.6a6.595 6.595 0 0 0-2.333-.4c-2 0-3.667.733-4.934 2.2C1.133 9 .533 10.6.533 12.4c0 1.867.6 3.467 1.867 4.8 1.267 1.4 2.867 2.067 4.867 2.067s3.6-.667 4.866-2.067C13.4 15.8 14 14.2 14 12.4c0-1-.2-1.867-.533-2.733-.467.333-1 .533-1.6.666.2.667.333 1.4.333 2.134"/></g></svg>
