<svg id="Layer_1" data-name="Layer 1" xmlns="http://www.w3.org/2000/svg" viewBox="0 0 25 15.909"><defs><style>.cls-1{fill:#c1c1c1;}</style></defs><title>Desktop_Header-GooglePlus</title><path class="cls-1" d="M7.939,6.38V9.53s3.051-.004,4.293-.004c-.672,2.043-1.718,3.154-4.293,3.154A4.6533,4.6533,0,0,1,3.302,7.955,4.6544,4.6544,0,0,1,7.939,3.228,4.4872,4.4872,0,0,1,11.023,4.39c.653-.654.599-.748,2.26-2.32A7.9479,7.9479,0,1,0,7.939,15.909c6.556,0,8.157-5.72,7.628-9.53H7.939Z"/><polygon class="cls-1" points="22.249 6.538 22.249 3.78 20.283 3.78 20.283 6.538 17.453 6.538 17.453 8.507 20.283 8.507 20.283 11.343 22.249 11.343 22.249 8.507 25 8.507 25 6.538 22.249 6.538"/></svg>