<svg id="Layer_1" data-name="Layer 1" xmlns="http://www.w3.org/2000/svg" viewBox="0 0 9.5697 10.25"><defs><style>.cls-1{fill:#626262;stroke:#626262;stroke-miterlimit:10;stroke-width:0.25px;}</style></defs><title>Close Language selector</title><path class="cls-1" d="M5.3078,5.1252,9.3364.8024a.4175.4175,0,0,0,0-.5612.3522.3522,0,0,0-.523,0L4.7849,4.564.7563.2413a.3522.3522,0,0,0-.523,0,.4175.4175,0,0,0,0,.5612L4.2619,5.1252.2333,9.4479a.4175.4175,0,0,0,0,.5612.3528.3528,0,0,0,.523,0L4.7849,5.6863,8.8134,10.009a.3528.3528,0,0,0,.523,0,.4175.4175,0,0,0,0-.5612Z"/></svg>