<svg id="Layer_1" data-name="Layer 1" xmlns="http://www.w3.org/2000/svg" viewBox="0 0 19.958 20"><defs><style>.cls-1{fill:#c1c1c1;}</style></defs><title>Desktop_Header-Pinterest</title><g id="Symbols"><g id="Icon_Social-Media_Pinterest" data-name="Icon/Social-Media/Pinterest"><g id="Layer_1-2" data-name="Layer 1"><path id="Shape" class="cls-1" d="M9.98,0A10.0035,10.0035,0,0,0,5.975,19.16a8.8019,8.8019,0,0,1,.173-2.297c.192-.811,1.283-5.449,1.283-5.449a3.8644,3.8644,0,0,1-.317-1.58c0-1.486.857-2.591,1.925-2.591a1.3393,1.3393,0,0,1,1.346,1.501,21.56,21.56,0,0,1-.881,3.549,1.5462,1.5462,0,0,0,1.574,1.926c1.892,0,3.165-2.433,3.165-5.314,0-2.193-1.475-3.832-4.152-3.832A4.7288,4.7288,0,0,0,5.178,9.86a2.897,2.897,0,0,0,.657,1.962.4863.4863,0,0,1,.143.558c-.048.184-.156.625-.202.801a.3436.3436,0,0,1-.499.252C3.879,12.86,3.231,11.33,3.231,9.611c0-2.84,2.39-6.249,7.132-6.249,3.811,0,6.317,2.766,6.317,5.73,0,3.923-2.176,6.853-5.385,6.853A2.8625,2.8625,0,0,1,8.857,14.7s-.579,2.302-.702,2.749A8.3717,8.3717,0,0,1,7.15,19.591,9.9972,9.9972,0,1,0,9.98,0"/></g></g></g></svg>