<svg id="Layer_1" data-name="Layer 1" xmlns="http://www.w3.org/2000/svg" viewBox="0 0 20 16.9492"><defs><style>.cls-1{fill:#c1c1c1;}</style></defs><title>Desktop_Header-Twitter</title><path class="cls-1" d="M19.449.45a8.1047,8.1047,0,0,1-2.608,1.02A4.0476,4.0476,0,0,0,13.847.1421a4.1569,4.1569,0,0,0-4.103,4.207,4.2366,4.2366,0,0,0,.106.958A11.55,11.55,0,0,1,1.393.9091a4.2773,4.2773,0,0,0-.556,2.119,4.2307,4.2307,0,0,0,1.825,3.5,3.9675,3.9675,0,0,1-1.859-.524v.052a4.184,4.184,0,0,0,3.293,4.126,3.94,3.94,0,0,1-1.081.146,3.86,3.86,0,0,1-.773-.074,4.1172,4.1172,0,0,0,3.834,2.92,8.0945,8.0945,0,0,1-5.097,1.803A8.1308,8.1308,0,0,1,0,14.9191a11.4225,11.4225,0,0,0,6.29,1.888c7.548,0,11.675-6.41,11.675-11.97,0-.185-.004-.366-.011-.545A8.3609,8.3609,0,0,0,20,2.1131a7.8962,7.8962,0,0,1-2.355.662A4.1916,4.1916,0,0,0,19.449.45"/></svg>