<?xml version="1.0" encoding="utf-8"?>
<!-- Generator: Adobe Illustrator 15.0.0, SVG Export Plug-In . SVG Version: 6.00 Build 0)  -->
<!DOCTYPE svg PUBLIC "-//W3C//DTD SVG 1.1//EN" "http://www.w3.org/Graphics/SVG/1.1/DTD/svg11.dtd">
<svg version="1.1" id="Layer_1" xmlns="http://www.w3.org/2000/svg" xmlns:xlink="http://www.w3.org/1999/xlink" x="0px" y="0px"
	 width="21px" height="21px" viewBox="0 0 21 21" enable-background="new 0 0 21 21" xml:space="preserve">
<path fill="#FF5800" d="M19.949,2.476c-0.794,0.481-1.671,0.832-2.608,1.02c-0.745-0.816-1.813-1.328-2.994-1.328
	c-2.265,0-4.103,1.884-4.103,4.207c0,0.332,0.035,0.651,0.106,0.958C6.939,7.157,3.917,5.483,1.893,2.935
	C1.539,3.558,1.337,4.282,1.337,5.054c0,1.458,0.724,2.747,1.825,3.5C2.49,8.536,1.856,8.345,1.303,8.03v0.052
	c0,2.038,1.414,3.741,3.293,4.126c-0.344,0.098-0.707,0.146-1.081,0.146c-0.265,0-0.523-0.023-0.773-0.074
	c0.523,1.672,2.038,2.889,3.834,2.92c-1.404,1.131-3.175,1.803-5.097,1.803c-0.33,0-0.658-0.019-0.979-0.058
	c1.815,1.192,3.975,1.888,6.29,1.888c7.548,0,11.675-6.41,11.675-11.97c0-0.185-0.004-0.366-0.011-0.545
	c0.802-0.593,1.499-1.333,2.046-2.179c-0.734,0.336-1.525,0.563-2.355,0.662C18.992,4.282,19.643,3.458,19.949,2.476"/>
</svg>
