<svg width="40" height="40" viewBox="0 0 40 40" xmlns="http://www.w3.org/2000/svg"><path d="M11.48 16.55h3.702V28.28h-3.7V16.55zm13.82-.114c2.633 0 4.7 1.688 4.7 5.32v6.525h-4.2v-6.07c0-1.59-.656-2.677-2.1-2.677-.91.002-1.715.58-2.006 1.44-.088.312-.12.637-.09.96v6.35h-4.16s.054-10.758 0-11.734h4.16v1.84c.245-.804 1.576-1.954 3.697-1.954zM13.264 11.01c.572-.05 1.138.14 1.562.528.424.387.667.933.67 1.507-.004.578-.252 1.128-.68 1.515-.43.387-1.003.577-1.58.522h-.024c-.568.045-1.13-.15-1.55-.535-.418-.386-.658-.93-.66-1.5.006-.578.254-1.128.684-1.515.43-.387 1.003-.577 1.58-.523z" fill="#FFF" fill-rule="evenodd"/></svg>