<?xml version="1.0" encoding="UTF-8" standalone="no"?>
<svg width="30px" height="30px" viewBox="0 0 30 30" version="1.1" xmlns="http://www.w3.org/2000/svg" xmlns:xlink="http://www.w3.org/1999/xlink">
    <!-- Generator: Sketch 42 (36781) - http://www.bohemiancoding.com/sketch -->
    <title>arrow_left</title>
    <desc>Created with Sketch.</desc>
    <defs>
        <rect id="path-1" x="0" y="0" width="30" height="30" rx="15"></rect>
        <mask id="mask-2" maskContentUnits="userSpaceOnUse" maskUnits="objectBoundingBox" x="0" y="0" width="30" height="30" fill="white">
            <use xlink:href="#path-1"></use>
        </mask>
    </defs>
    <g id="Redlines" stroke="none" stroke-width="1" fill="none" fill-rule="evenodd">
        <g id="Hero-Modules" transform="translate(-120.000000, -668.000000)">
            <g id="Hero-Module-A---Space-with-header" transform="translate(0.000000, 300.000000)">
                <g id="arrow_left" transform="translate(135.000000, 383.000000) scale(-1, 1) translate(-135.000000, -383.000000) translate(120.000000, 368.000000)">
                    <use id="Rectangle-4" stroke="#FFFFFF" mask="url(#mask-2)" stroke-width="2" xlink:href="#path-1"></use>
                    <path d="M12.0615339,20.3171018 C11.8523556,20.5116492 11.840495,20.8389335 12.0350424,21.0481117 C12.2295899,21.2572899 12.5568741,21.2691505 12.7660524,21.0746031 L19.1652165,15.1230234 C19.3851978,14.9184285 19.3851918,14.5700973 19.1652035,14.36551 L12.7660393,8.41434067 C12.5568544,8.21980045 12.2295705,8.23167232 12.0350303,8.44085722 C11.8404901,8.65004213 11.852362,8.97732601 12.0615469,9.17186623 L18.0534496,14.7442858 L12.0615339,20.3171018 Z" id="Page-1-Copy" fill="#FFFFFF" fill-rule="nonzero"></path>
                </g>
            </g>
        </g>
    </g>
</svg>