<?xml version="1.0" encoding="UTF-8" standalone="no"?>
<svg width="220px" height="56px" viewBox="0 0 220 56" version="1.1" xmlns="http://www.w3.org/2000/svg" xmlns:xlink="http://www.w3.org/1999/xlink">
    <!-- Generator: Sketch 41.2 (35397) - http://www.bohemiancoding.com/sketch -->
    <title>Logo</title>
    <desc>Created with Sketch.</desc>
    <defs>
        <linearGradient x1="-1.38569408%" y1="81.3424096%" x2="90.30092%" y2="41.933178%" id="linearGradient-1">
            <stop stop-color="#FF5800" offset="20%"></stop>
            <stop stop-color="#FF7000" offset="24.22%"></stop>
            <stop stop-color="#FF9500" offset="31.92%"></stop>
            <stop stop-color="#FFB200" offset="39.63%"></stop>
            <stop stop-color="#FFC600" offset="47.25%"></stop>
            <stop stop-color="#FFD300" offset="54.76%"></stop>
            <stop stop-color="#FFD700" offset="62%"></stop>
            <stop stop-color="#FFCE00" offset="65.97%"></stop>
            <stop stop-color="#FFB600" offset="72.44%"></stop>
            <stop stop-color="#FF8E00" offset="80.61%"></stop>
            <stop stop-color="#FF5800" offset="90%"></stop>
        </linearGradient>
        <linearGradient x1="-9.0173033e-05%" y1="49.9885794%" x2="100%" y2="49.9885794%" id="linearGradient-2">
            <stop stop-color="#FF5800" offset="9%"></stop>
            <stop stop-color="#FF7907" offset="18.98%"></stop>
            <stop stop-color="#FF990E" offset="30.59%"></stop>
            <stop stop-color="#FFAD12" offset="40.34%"></stop>
            <stop stop-color="#FFB414" offset="47%"></stop>
            <stop stop-color="#FFAD12" offset="53.14%"></stop>
            <stop stop-color="#FF980E" offset="62.35%"></stop>
            <stop stop-color="#FF7707" offset="73.42%"></stop>
            <stop stop-color="#FF5800" offset="82%"></stop>
        </linearGradient>
        <linearGradient x1="2.26234023%" y1="31.6212324%" x2="99.0547057%" y2="68.3517216%" id="linearGradient-3">
            <stop stop-color="#FF5800" offset="50%"></stop>
            <stop stop-color="#CE056A" stop-opacity="0.99" offset="64%"></stop>
            <stop stop-color="#CF0768" stop-opacity="0.9902" offset="75.62%"></stop>
            <stop stop-color="#D20D60" stop-opacity="0.9909" offset="80.95%"></stop>
            <stop stop-color="#D81753" stop-opacity="0.9921" offset="85%"></stop>
            <stop stop-color="#E12541" stop-opacity="0.9939" offset="88.39%"></stop>
            <stop stop-color="#EC3829" stop-opacity="0.9961" offset="91.38%"></stop>
            <stop stop-color="#F94E0C" stop-opacity="0.9988" offset="94.05%"></stop>
            <stop stop-color="#FF5800" offset="95%"></stop>
        </linearGradient>
        <linearGradient x1="3.26095544%" y1="58.7333896%" x2="101.050466%" y2="28.2172192%" id="linearGradient-4">
            <stop stop-color="#FF5800" offset="0%"></stop>
            <stop stop-color="#FC5400" offset="6.25%"></stop>
            <stop stop-color="#F54700" offset="12.72%"></stop>
            <stop stop-color="#E83300" offset="19.29%"></stop>
            <stop stop-color="#D61600" offset="25.9%"></stop>
            <stop stop-color="#C80000" offset="30%"></stop>
            <stop stop-color="#C80000" offset="48%"></stop>
            <stop stop-color="#FF5800" offset="91%"></stop>
        </linearGradient>
    </defs>
    <g id="Page-1" stroke="none" stroke-width="1" fill="none" fill-rule="evenodd">
        <g id="Global-Navigation-Modules" transform="translate(-129.000000, -375.000000)">
            <g id="Header-Menu" transform="translate(0.000000, 150.000000)">
                <g id="Navigation-Bar" transform="translate(0.000000, 200.000000)">
                    <g id="Logo" transform="translate(129.000000, 25.000000)">
                        <g id="avanade_logo">
                            <g id="logo">
                                <path d="M71.6610906,21.1848889 C70.4905479,21.1821279 69.3223854,21.2901978 68.1723228,21.5076444 C67.2305909,21.6597911 66.319675,21.962623 65.4747553,22.4044444 L65.8344161,25.7763111 C66.7199179,25.5169344 67.620881,25.313289 68.5319836,25.1665778 C69.3296121,25.046851 70.1351132,24.9868906 70.9417244,24.9872 C74.0102121,24.9872 75.5448272,26.1590519 75.5455699,28.5027556 L75.5455699,29.2918667 C74.5473395,29.1268265 73.5358719,29.054827 72.5242587,29.0768 C69.8379357,29.0768 67.7158879,29.6746667 66.1581153,30.8704 C64.6121499,32.0383214 63.7385808,33.8880123 63.8202532,35.8205778 C63.8202532,40.1252 66.7695224,42.2775111 72.6680606,42.2775111 C75.1991755,42.2586017 77.7159631,41.8965754 80.1492818,41.2013778 L80.1492818,28.8614222 C80.1493709,23.7440889 77.3199738,21.1852444 71.6610906,21.1848889 Z M75.5455699,38.4035111 C74.583249,38.655424 73.5911346,38.7760926 72.5963156,38.7622222 C69.8144812,38.7622222 68.4237125,37.7577778 68.4240096,35.7488889 C68.4240096,33.6449481 69.9586248,32.5926815 73.0278551,32.5920889 C73.8729798,32.5515116 74.7197484,32.6239172 75.5456145,32.8073778 L75.5455699,38.4035111 Z" id="Shape" fill="#FF5800"></path>
                                <polygon id="Shape" fill="#FF5800" points="82.2353679 21.6871111 87.3430773 21.6871111 92.3064054 37.1835556 97.3419241 21.6871111 102.233062 21.6871111 94.6080385 41.7755556 89.860391 41.7755556"></polygon>
                                <path d="M111.153104,21.1848889 C109.982562,21.1821308 108.814399,21.2902007 107.664336,21.5076444 C106.72262,21.6597965 105.81172,21.9626282 104.966813,22.4044444 L105.326474,25.7763111 C106.211961,25.5169354 107.112909,25.31329 108.023997,25.1665778 C108.82164,25.046843 109.627156,24.9868826 110.433783,24.9872 C113.50224,24.9872 115.036856,26.1590519 115.037628,28.5027556 L115.037628,29.2918667 C114.039398,29.1268273 113.02793,29.0548278 112.016317,29.0768 C109.330024,29.0768 107.207901,29.6746667 105.649951,30.8704 C104.104065,32.0383857 103.230516,33.8880325 103.312089,35.8205778 C103.312089,40.1252 106.261432,42.2775111 112.160119,42.2775111 C114.691232,42.2585824 117.208017,41.8965565 119.64134,41.2013778 L119.64134,28.8614222 C119.641399,23.7440889 116.811987,21.1852444 111.153104,21.1848889 Z M115.037583,38.4035111 C114.075262,38.6554192 113.083148,38.7760877 112.088329,38.7622222 C109.306495,38.7622222 107.915726,37.7577778 107.916023,35.7488889 C107.916023,33.6449481 109.450638,32.5926815 112.519869,32.5920889 C113.364993,32.5515148 114.211761,32.6239204 115.037628,32.8073778 L115.037583,38.4035111 Z" id="Shape" fill="#FF5800"></path>
                                <path d="M137.449608,29.9377778 C137.449608,28.1205926 137.101875,26.8650667 136.406409,26.1712 C135.710705,25.4785185 134.475815,25.1318519 132.701737,25.1312 C132.183364,25.1391054 131.666383,25.1870413 131.155432,25.2745778 C130.58591,25.3641849 130.021566,25.4839243 129.46479,25.6332889 L129.46479,41.7757778 L124.788977,41.7757778 L124.788977,22.6914667 C126.113153,22.1791791 127.487425,21.80644 128.88936,21.5793333 C130.362085,21.3221302 131.854056,21.1901743 133.34918,21.1848889 C139.199443,21.1848889 142.124827,23.8155111 142.125332,29.0767556 L142.125332,41.7754222 L137.449608,41.7754222 L137.449608,29.9377778 Z" id="Shape" fill="#FF5800"></path>
                                <path d="M153.634834,21.1848889 C152.464143,21.1821053 151.295831,21.2901754 150.145621,21.5076444 C149.203905,21.6597965 148.293004,21.9626282 147.448098,22.4044444 L147.807759,25.7763111 C148.693245,25.5169326 149.594193,25.3132871 150.505282,25.1665778 C151.302985,25.0468537 152.10856,24.9868934 152.915245,24.9872 C155.983703,24.9872 157.518244,26.1590519 157.518868,28.5027556 L157.518868,29.2918667 C156.520639,29.1268168 155.50917,29.0548172 154.497557,29.0768 C151.811234,29.0768 149.689186,29.6746667 148.131413,30.8704 C146.585442,32.0383165 145.711871,33.8880108 145.793551,35.8205778 C145.793551,40.1252 148.742806,42.2775111 154.641314,42.2775111 C157.172429,42.2585995 159.689216,41.8965732 162.122535,41.2013778 L162.122535,28.8614222 C162.122803,23.7440889 159.293569,21.1852444 153.634834,21.1848889 Z M157.519135,38.4035111 C156.556814,38.6554192 155.5647,38.7760877 154.569881,38.7622222 C151.788047,38.7622222 150.397367,37.7577778 150.397843,35.7488889 C150.397843,33.6449481 151.932369,32.5926815 155.001421,32.5920889 C155.846546,32.5514999 156.693316,32.6239056 157.51918,32.8073778 L157.519135,38.4035111 Z" id="Shape" fill="#FF5800"></path>
                                <path d="M179.53117,13.9385333 L179.53117,21.6152889 C178.433625,21.2964864 177.292756,21.1512567 176.150109,21.1848889 C173.080492,21.1848889 170.586752,22.1772741 168.668888,24.1620444 C166.7504,26.1474074 165.791275,28.742237 165.791512,31.9465333 C165.791512,35.2948296 166.726678,37.8536741 168.597009,39.6230667 C170.467251,41.3930815 173.200766,42.2778815 176.797552,42.2774667 C179.303747,42.2416648 181.794549,41.8799006 184.206894,41.2013333 L184.206894,13.9385333 L179.53117,13.9385333 Z M179.53117,38.1163111 C178.591974,38.3557545 177.621936,38.452532 176.653795,38.4033778 C172.672586,38.4033778 170.682382,36.2270815 170.683185,31.8744889 C170.683185,29.6752296 171.198724,27.9772889 172.229802,26.7806667 C173.260345,25.5856148 174.710976,24.9877481 176.581693,24.9870667 C177.58822,24.9619085 178.590026,25.132491 179.53117,25.4892889 L179.53117,38.1163111 Z" id="Shape" fill="#FF5800"></path>
                                <path d="M205.930969,30.6550667 C205.930969,27.7381185 205.163713,25.4303259 203.629202,23.7316889 C202.0938,22.0345926 200.007654,21.1857037 197.370765,21.1850222 C194.49339,21.1850222 192.203536,22.1416 190.501204,24.0547556 C188.798367,25.9681778 187.947111,28.5748444 187.947438,31.8747556 C187.947438,35.1752 188.858629,37.7341185 190.681012,39.5515111 C192.5028,41.3696444 195.092394,42.2783556 198.449792,42.2776444 C200.589609,42.2894387 202.712592,41.9000901 204.708229,41.1298667 L204.204677,37.6143111 C202.466666,38.1978699 200.643394,38.4888675 198.809587,38.4753778 C194.876832,38.4753778 192.862624,36.7056593 192.766964,33.1662222 L205.931058,33.1662222 L205.930969,30.6550667 Z M192.766875,29.6506222 C192.825044,28.3333074 193.318257,27.0721311 194.169735,26.0634222 C194.949816,25.2069502 196.067363,24.7349223 197.226919,24.7721333 C198.376908,24.730574 199.485241,25.2042683 200.24823,26.0634222 C201.014847,26.9244889 201.398467,28.1202222 201.399091,29.6506222 L192.766875,29.6506222 Z" id="Shape" fill="#FF5800"></path>
                                <path d="M13.7923749,13.1040444 C12.2051318,16.1906815 10.9177176,18.6517778 9.93013201,20.4873333 C9.11778462,22.0353207 8.20907973,23.5310749 7.20934768,24.9658222 C6.46953389,26.0230879 5.58489443,26.9717995 4.58120797,27.7843111 C3.45572216,28.6513974 2.2823883,29.4548799 1.06672785,30.1909778 L0.277220902,28.9854222 C1.17737557,28.3238815 1.98565802,27.6707259 2.70206825,27.0259556 C3.56459956,26.2117236 4.33945038,25.3098176 5.01399521,24.3349333 C6.04983445,22.8492482 7.00583478,21.309747 7.87795761,19.7229333 C8.96114373,17.7979259 10.2994925,15.2000444 11.8930039,11.9292889 C12.8401099,9.91903966 13.9269861,7.97729738 15.1456817,6.11826667 C15.9915147,4.81736359 16.9870074,3.61959628 18.1118695,2.54937778 C18.9133819,1.78048086 19.8513719,1.16707406 20.877929,0.740488889 C21.7438395,0.405931204 22.6686672,0.249564675 23.5967526,0.2808 C24.501635,0.318517186 25.3895745,0.538011209 26.2073794,0.926133333 C27.2993847,1.51145386 28.2614598,2.31093761 29.0357812,3.27653333 C30.3334058,4.8457009 31.4807695,6.53267283 32.4628305,8.31533333 C33.7256019,10.5072148 35.2186258,13.3885037 36.9419021,16.9592 C37.8829421,18.9373546 38.9378531,20.8595983 40.1013559,22.7163111 C40.9662195,24.1022977 41.9913078,25.3821765 43.1555539,26.5296444 C44.1655646,27.5078912 45.3163321,28.3302868 46.5698139,28.9696444 C47.9301268,29.6425842 49.3490299,30.1906376 50.8089631,30.6070222 L51.7890176,32.3041333 C50.0314835,32.1365779 48.2999848,31.7623045 46.6305966,31.1891111 C45.0876641,30.6302828 43.6606734,29.7937576 42.4205465,28.7211111 C40.9837337,27.4610153 39.717886,26.0193539 38.6550479,24.4326222 C37.2456558,22.3346368 35.9908453,20.1373647 34.9005117,17.8581333 C33.3027223,14.6617185 31.9499948,12.0624296 30.8423293,10.0602667 C29.9725454,8.43215137 28.9850212,6.86938025 27.8875938,5.38435556 C27.2624606,4.49524235 26.4789813,3.72814313 25.5761125,3.1212 C24.9532941,2.74517223 24.2462498,2.53006885 23.5190363,2.49537778 C22.7727195,2.47126685 22.0312675,2.6235609 21.3552338,2.93982222 C20.5138828,3.3664778 19.7636902,3.95215026 19.146379,4.66426667 C18.2270143,5.69311036 17.399892,6.80038957 16.6745186,7.97337778 C15.7946843,9.35213333 14.8339697,11.0623556 13.7923749,13.1040444 Z" id="Shape" fill="url(#linearGradient-1)"></path>
                                <path d="M37.4083783,33.3274222 C39.7281184,33.4112145 42.0507809,33.2950795 44.350487,32.9803111 C46.4196845,32.7154757 48.4564035,32.2408419 50.4290265,31.5637778 L50.6623091,32.8189778 C47.4960522,34.8340593 43.0522144,35.7417778 37.3307957,35.5421333 C35.0739928,35.4974485 32.8294918,35.1984083 30.6400618,34.6507111 C28.9225838,34.2050113 27.250162,33.6016964 25.6442034,32.8484889 C24.5529367,32.3492593 23.5086087,31.8278815 22.5112195,31.2843556 C21.5135035,30.7418963 20.502924,30.2447704 19.4794808,29.7929778 C18.4565441,29.3420033 17.4051476,28.9581927 16.3320142,28.644 C15.2218244,28.3238437 14.0756579,28.1442705 12.9205171,28.1095111 C11.0935021,28.0491243 9.26523205,28.1828703 7.46660475,28.5084889 C5.6155521,28.8415682 3.79980074,29.3466279 2.04308373,30.0170667 L1.24386224,29.0886222 L2.72399281,28.3778222 C4.24926488,27.50656 5.8945952,26.8635021 7.60728734,26.4692444 C9.36957414,26.0336088 11.183313,25.8403668 12.9980998,25.8948889 C14.2906691,25.9298455 15.5748235,26.1140667 16.8248712,26.4438667 C17.961551,26.7511288 19.0716436,27.1489715 20.1444366,27.6335556 C21.1898044,28.1095852 22.2341323,28.630963 23.2774205,29.1976889 C24.3198174,29.7656296 25.4098513,30.3001778 26.547522,30.8013333 C28.0568076,31.4722778 29.6118281,32.0358051 31.2009206,32.4876889 C33.2288641,33.0146489 35.3129648,33.2965821 37.4083783,33.3274222 L37.4083783,33.3274222 Z" id="Shape" fill="url(#linearGradient-2)"></path>
                                <path d="M40.7730406,16.3996 C39.943022,16.3705983 39.1209726,16.5696372 38.3966768,16.9749778 C37.4053055,17.5925186 36.5233637,18.3696027 35.7866739,19.2746667 C34.5389579,20.742576 33.3854726,22.2876385 32.3331102,23.9006222 C31.0170425,25.8642074 29.3804098,28.4055407 27.4232121,31.5246222 C24.7796687,35.7750519 22.3276236,38.8423111 20.0670768,40.7264 C17.80653,42.6104889 15.4303741,43.5093185 12.9386093,43.4228889 C10.3085832,43.3312741 7.83663368,42.0210519 5.52276084,39.4922222 C3.2085018,36.9637185 1.45997364,33.4614963 0.277176339,28.9855556 L2.48005981,29.4087111 C3.69491212,32.962163 5.23566201,35.798963 7.10230948,37.9191111 C8.96895696,40.0392593 10.9402214,41.1356741 13.0161029,41.2083556 C14.954228,41.2758519 16.9114702,40.4664 18.8878296,38.78 C20.8634166,37.0938074 23.0507033,34.3291111 25.4496898,30.4859111 C27.6024557,27.0511259 29.4095237,24.2616889 30.8708936,22.1176 C32.0303937,20.3622701 33.316389,18.6933919 34.7186983,17.1241778 C35.5692872,16.1318284 36.6109827,15.3199029 37.7820316,14.7365333 C38.75033,14.3251312 39.7991684,14.1367571 40.8505341,14.1854222 C43.3422395,14.2722074 45.5540057,15.7581333 47.4858326,18.6432 C49.4170952,21.5284741 51.1340437,25.9303259 52.6366781,31.8487556 L50.2456534,30.8648444 C48.7541298,25.9623556 47.2408747,22.3411111 45.7058882,20.0011111 C44.169951,17.6612296 42.5256685,16.4607259 40.7730406,16.3996 Z" id="Shape" fill="url(#linearGradient-3)"></path>
                                <path d="M35.7642592,48.6176444 C36.9015734,47.802 38.342014,46.2470074 40.0855809,43.9526667 C41.4398235,42.1981481 42.5532079,40.7471704 43.425734,39.5997333 C44.2973986,38.4522667 45.1182031,37.4415259 45.8881472,36.5675111 C46.657111,35.6936741 47.4487124,34.8551556 48.2629513,34.0519556 C49.076091,33.2489926 50.0806845,32.2677333 51.2767316,31.1081778 L52.6368118,31.8484444 C51.529473,33.1036444 50.6028633,34.1684444 49.8569827,35.0428444 C49.1094384,35.9176593 48.3734208,36.8158815 47.64893,37.7375111 C46.923637,38.6595556 46.125084,39.694237 45.2532708,40.8415556 C44.3814576,41.9888741 43.2672711,43.4628296 41.9107113,45.2634222 C40.0678303,47.7391852 38.424038,49.4949778 36.9793343,50.5308 C35.615497,51.5403363 33.9476363,52.0565955 32.2503583,51.9945778 C31.3928106,51.9744555 30.5441663,51.8161761 29.737278,51.5258667 C28.787852,51.1262938 27.9067959,50.5813314 27.1259382,49.9106667 C25.8838962,48.8700991 24.7191102,47.7411116 23.6407354,46.5325778 C22.3057139,45.0766667 20.6164088,43.1817037 18.57282,40.8476889 C17.0169487,39.0841037 15.6135541,37.6032148 14.3626362,36.4050222 C13.2293597,35.2985831 11.973008,34.324947 10.6180373,33.5030667 C9.38400701,32.7720265 8.06656239,32.191157 6.69389772,31.7728889 C5.1197941,31.3160159 3.5068438,31.0047158 1.87548563,30.8429333 L2.41829672,29.1988444 C4.11058753,29.328671 5.79215045,29.5723815 7.4514982,29.9283111 C8.91304543,30.254815 10.3184461,30.7941061 11.6225119,31.5288444 C13.0583341,32.3571344 14.3953985,33.3450697 15.6081027,34.4737333 C17.1916994,35.9499769 18.6872116,37.5174925 20.0869515,39.1682222 C22.1295896,41.5021185 23.7969702,43.3616593 25.0890932,44.7468444 C26.379909,46.1311407 27.4513605,47.1963259 28.3034475,47.9424 C28.9392061,48.54617 29.6714292,49.0400194 30.4700128,49.4036444 C31.0636876,49.6322979 31.6917746,49.7594588 32.3278518,49.7797778 C33.5719899,49.7902575 34.7830981,49.3806817 35.7642592,48.6176444 Z" id="Shape" fill="url(#linearGradient-4)"></path>
                            </g>
                        </g>
                    </g>
                </g>
            </g>
        </g>
    </g>
</svg>