<svg height="30" viewBox="0 0 30 30" width="30" xmlns="http://www.w3.org/2000/svg" xmlns:xlink="http://www.w3.org/1999/xlink"><defs><path id="a" d="M1.897 4.838c-.212 0-.39.075-.482.221-.095.152-.08.346.02.542l2.388 4.137c.006.006.006.012 0 .02L.071 16.381c-.097.195-.092.39 0 .541a.52.52 0 0 0 .461.241h3.534c.529 0 .784-.357.964-.682l3.815-6.745-2.43-4.235c-.177-.314-.44-.662-.983-.662H1.897zM16.74 0c-.527 0-.757.333-.946.674 0 0-7.613 13.497-7.86 13.94l5.018 9.21c.175.314.446.673.987.673h3.53c.212 0 .377-.08.468-.225.095-.151.091-.35-.007-.546l-4.982-9.1c-.005-.006-.005-.015 0-.023L20.77.772c.098-.195.1-.394.007-.544-.091-.146-.26-.227-.473-.227h-3.567z"/><mask id="b" fill="#fff"><use fill="none" xlink:href="#a"/></mask></defs><g fill="#ff5800" fill-rule="evenodd" transform="translate(4 2)"><use xlink:href="#a"/><path d="M-12.235-10.706h45.882v45.882h-45.882z" mask="url(#b)"/></g></svg>