<?xml version="1.0" encoding="utf-8"?>
<!-- Generator: Adobe Illustrator 15.0.0, SVG Export Plug-In . SVG Version: 6.00 Build 0)  -->
<!DOCTYPE svg PUBLIC "-//W3C//DTD SVG 1.1//EN" "http://www.w3.org/Graphics/SVG/1.1/DTD/svg11.dtd">
<svg version="1.1" id="Layer_1" xmlns="http://www.w3.org/2000/svg" xmlns:xlink="http://www.w3.org/1999/xlink" x="0px" y="0px"
	 width="26.808px" height="21px" viewBox="0 0 26.808 21" enable-background="new 0 0 26.808 21" xml:space="preserve">
<g>
	<path fill="#FF5800" d="M8.904,8.387v3.15c0,0,3.051-0.004,4.293-0.004c-0.672,2.043-1.718,3.154-4.293,3.154
		c-2.605,0-4.637-2.115-4.637-4.725c0-2.61,2.031-4.727,4.637-4.727c1.378,0,2.268,0.484,3.084,1.162
		c0.653-0.654,0.599-0.748,2.26-2.32c-1.409-1.287-3.285-2.07-5.344-2.07c-4.384,0-7.939,3.561-7.939,7.955
		c0,4.393,3.556,7.954,7.939,7.954c6.556,0,8.157-5.72,7.628-9.53H8.904z"/>
	<polygon fill="#FF5800" points="23.214,8.545 23.214,5.787 21.248,5.787 21.248,8.545 18.418,8.545 18.418,10.514 21.248,10.514 
		21.248,13.35 23.214,13.35 23.214,10.514 25.965,10.514 25.965,8.545 	"/>
</g>
</svg>
