<?xml version="1.0" encoding="utf-8"?>
<!-- Generator: Adobe Illustrator 15.0.0, SVG Export Plug-In . SVG Version: 6.00 Build 0)  -->
<!DOCTYPE svg PUBLIC "-//W3C//DTD SVG 1.1//EN" "http://www.w3.org/Graphics/SVG/1.1/DTD/svg11.dtd">
<svg version="1.1" id="Layer_1" xmlns="http://www.w3.org/2000/svg" xmlns:xlink="http://www.w3.org/1999/xlink" x="0px" y="0px"
	 width="21px" height="21px" viewBox="0 0 21 21" enable-background="new 0 0 21 21" xml:space="preserve">
<g>
	<rect x="1.006" y="7.241" fill=" #000066" width="3.896" height="12.35"/>
	<path fill=" #000066" d="M15.554,7.122c-2.233,0-3.634,1.21-3.892,2.056V7.241H7.283c0.057,1.027,0,12.35,0,12.35h4.379v-6.684
		c0-0.372-0.019-0.741,0.095-1.009c0.301-0.744,0.948-1.516,2.11-1.516c1.521,0,2.213,1.145,2.213,2.816v6.392h4.42v-6.868
		C20.5,8.898,18.324,7.122,15.554,7.122"/>
	<path fill=" #000066" d="M2.882,1.409C1.444,1.409,0.5,2.333,0.5,3.555c0,1.197,0.916,2.141,2.327,2.141h0.027
		c1.466,0,2.378-0.947,2.378-2.144C5.205,2.331,4.32,1.409,2.882,1.409"/>
</g>
</svg>
