<?xml version="1.0" standalone="no"?>
<!DOCTYPE svg PUBLIC "-//W3C//DTD SVG 20010904//EN"
 "http://www.w3.org/TR/2001/REC-SVG-20010904/DTD/svg10.dtd">
<svg version="1.0" xmlns="http://www.w3.org/2000/svg"
 width="219.000000pt" height="56.000000pt" viewBox="0 0 219.000000 56.000000"
 preserveAspectRatio="xMidYMid meet">

<g transform="translate(0.000000,56.000000) scale(0.100000,-0.100000)"
fill="#000000" stroke="none">
<path d="M1167 550 c-16 -5 -35 -14 -43 -21 -18 -15 -18 -48 1 -55 20 -8 19
-63 -1 -114 -16 -39 -17 -40 -65 -40 -27 0 -49 5 -49 10 0 6 9 28 20 50 11 22
20 42 20 45 0 3 -31 5 -68 5 l-69 0 -39 -87 c-21 -47 -40 -90 -42 -95 -2 -4
28 -8 66 -8 68 0 70 1 82 30 11 28 16 30 61 30 27 0 49 -2 49 -4 0 -3 -4 -16
-10 -30 l-10 -26 69 0 68 0 41 90 42 90 39 0 c58 0 75 27 50 79 -15 32 -26 40
-63 50 -51 13 -108 13 -149 1z"/>
<path d="M600 460 c0 -6 27 -10 60 -10 33 0 60 -4 60 -9 0 -5 -20 -52 -45
-105 l-44 -96 83 0 83 0 48 105 48 105 69 0 c39 0 68 4 68 10 0 6 -78 10 -215
10 -137 0 -215 -4 -215 -10z"/>
<path d="M1274 323 c-16 -37 -30 -71 -32 -75 -2 -4 62 -8 142 -8 138 0 146 1
160 22 9 12 16 29 16 37 0 8 6 22 14 30 7 9 17 26 20 39 l7 22 -149 0 -149 0
-29 -67z m216 52 c0 -2 -5 -16 -12 -30 -9 -20 -18 -25 -50 -25 -40 0 -45 8
-28 41 8 14 21 19 50 19 22 0 40 -2 40 -5z m-43 -95 c-10 -27 -16 -30 -54 -30
l-44 0 16 30 c13 26 21 30 54 30 l39 0 -11 -30z"/>
<path d="M278 183 c15 -3 22 -11 22 -29 0 -13 5 -24 10 -24 6 0 10 11 10 24 0
18 7 26 23 29 12 2 -3 4 -33 4 -30 0 -45 -2 -32 -4z"/>
<path d="M380 160 c0 -21 5 -30 16 -30 8 0 12 5 9 10 -4 6 9 11 32 11 26 1 30
3 13 6 -51 8 -55 17 -10 23 l45 7 -52 1 c-53 2 -53 2 -53 -28z"/>
<path d="M515 176 c-16 -12 -17 -16 -6 -30 7 -9 21 -16 29 -16 13 0 13 2 -3
13 -29 22 -9 40 36 34 22 -3 37 -1 33 4 -8 14 -68 11 -89 -5z"/>
<path d="M640 160 c0 -32 14 -40 24 -15 6 18 -2 45 -15 45 -5 0 -9 -13 -9 -30z"/>
<path d="M728 173 c-6 -22 1 -43 13 -43 5 0 9 14 9 30 0 33 -15 41 -22 13z"/>
<path d="M780 160 c0 -16 5 -30 10 -30 6 0 10 4 10 9 0 5 12 12 28 14 l27 4
-27 2 c-18 0 -28 7 -28 16 0 8 -4 15 -10 15 -5 0 -10 -13 -10 -30z"/>
<path d="M866 174 c-3 -9 -2 -23 4 -32 7 -14 9 -10 10 16 0 35 -5 41 -14 16z"/>
<path d="M920 161 c0 -17 5 -31 10 -31 6 0 10 11 10 24 0 14 -4 28 -10 31 -6
4 -10 -7 -10 -24z"/>
<path d="M975 176 c-16 -12 -17 -16 -6 -30 7 -9 21 -16 29 -16 13 0 13 2 -3
13 -30 23 -9 40 41 34 24 -2 41 -1 38 4 -8 14 -78 10 -99 -5z"/>
<path d="M1110 160 c0 -16 4 -30 9 -30 12 0 19 21 13 43 -7 28 -22 20 -22 -13z"/>
<path d="M1196 175 c-6 -18 2 -45 15 -45 5 0 9 14 9 30 0 32 -14 40 -24 15z"/>
<path d="M1250 160 c0 -16 5 -30 11 -30 5 0 7 5 4 10 -4 6 9 10 32 10 28 0 34
-3 23 -10 -13 -8 -13 -10 2 -10 23 0 27 10 17 38 -7 18 -16 22 -49 22 -38 0
-40 -2 -40 -30z m70 10 c0 -5 -11 -10 -24 -10 -14 0 -28 5 -31 10 -4 6 7 10
24 10 17 0 31 -4 31 -10z"/>
<path d="M1370 160 c0 -16 5 -30 10 -30 6 0 10 5 10 10 0 6 11 10 24 10 14 0
28 -4 31 -10 3 -5 14 -10 23 -10 15 0 15 2 2 10 -13 9 -13 11 0 20 23 15 -5
30 -57 30 -41 0 -43 -1 -43 -30z m85 10 c-3 -5 -19 -10 -36 -10 -16 0 -29 5
-29 10 0 6 16 10 36 10 21 0 33 -4 29 -10z"/>
<path d="M1518 179 c-22 -12 -23 -35 -2 -43 28 -11 38 -6 19 7 -25 19 -11 37
30 37 41 0 55 -18 30 -37 -11 -7 -14 -13 -8 -13 22 0 43 12 43 26 0 29 -75 45
-112 23z"/>
<path d="M1640 182 c0 -15 31 -52 45 -52 7 0 17 9 20 20 3 11 10 20 15 20 5 0
14 -9 20 -20 15 -28 33 -25 53 10 10 17 14 30 8 30 -6 0 -17 -12 -25 -27 l-14
-28 -13 28 c-14 32 -34 35 -49 7 -6 -11 -15 -20 -20 -20 -5 0 -12 9 -15 20 -6
19 -25 28 -25 12z"/>
<path d="M1840 180 c-11 -7 -9 -11 13 -19 16 -6 38 -11 50 -11 18 0 19 -2 7
-10 -13 -8 -13 -10 2 -10 21 0 34 19 16 24 -7 2 -29 9 -48 15 l-35 11 43 -4
c23 -2 40 0 36 5 -7 12 -65 11 -84 -1z"/>
<path d="M688 153 c7 -3 16 -2 19 1 4 3 -2 6 -13 5 -11 0 -14 -3 -6 -6z"/>
<path d="M1049 153 c19 -4 21 -7 10 -14 -11 -8 -10 -9 5 -7 35 6 30 28 -6 27
-26 -1 -28 -3 -9 -6z"/>
<path d="M1158 153 c7 -3 16 -2 19 1 4 3 -2 6 -13 5 -11 0 -14 -3 -6 -6z"/>
<path d="M590 140 c-13 -8 -13 -10 2 -10 9 0 20 5 23 10 8 13 -5 13 -25 0z"/>
<path d="M1835 140 c3 -5 14 -10 23 -10 15 0 15 2 2 10 -20 13 -33 13 -25 0z"/>
<path d="M415 50 c-10 -11 -14 -20 -9 -20 5 0 15 9 22 20 7 11 11 20 9 20 -2
0 -12 -9 -22 -20z"/>
<path d="M745 50 c-10 -11 -14 -20 -9 -20 5 0 15 9 22 20 7 11 11 20 9 20 -2
0 -12 -9 -22 -20z"/>
<path d="M980 55 c-7 -9 -11 -17 -9 -20 3 -2 10 5 17 15 14 24 10 26 -8 5z"/>
<path d="M1050 48 c-12 -22 -12 -22 6 -6 10 10 15 20 12 24 -4 3 -12 -5 -18
-18z"/>
<path d="M1176 53 c-6 -14 -5 -15 5 -6 7 7 10 15 7 18 -3 3 -9 -2 -12 -12z"/>
<path d="M1340 55 c-7 -9 -11 -17 -9 -20 3 -2 10 5 17 15 14 24 10 26 -8 5z"/>
<path d="M1490 48 c-12 -22 -12 -22 6 -6 10 10 15 20 12 24 -4 3 -12 -5 -18
-18z"/>
<path d="M1925 34 c-9 -15 -12 -23 -6 -20 11 7 35 46 28 46 -3 0 -12 -12 -22
-26z"/>
<path d="M75 40 c-3 -5 -1 -10 4 -10 6 0 11 5 11 10 0 6 -2 10 -4 10 -3 0 -8
-4 -11 -10z"/>
<path d="M189 34 c-16 -20 -9 -23 19 -9 18 10 20 14 8 18 -8 3 -20 -1 -27 -9z"/>
<path d="M335 40 c-3 -5 -1 -10 4 -10 6 0 11 5 11 10 0 6 -2 10 -4 10 -3 0 -8
-4 -11 -10z"/>
<path d="M505 40 c-3 -5 -1 -10 4 -10 6 0 11 5 11 10 0 6 -2 10 -4 10 -3 0 -8
-4 -11 -10z"/>
<path d="M940 34 c0 -8 5 -12 10 -9 6 3 10 10 10 16 0 5 -4 9 -10 9 -5 0 -10
-7 -10 -16z"/>
<path d="M1735 41 c-3 -6 3 -9 14 -8 11 0 17 5 15 9 -7 11 -22 10 -29 -1z"/>
<path d="M1795 40 c-3 -5 -1 -10 4 -10 6 0 11 5 11 10 0 6 -2 10 -4 10 -3 0
-8 -4 -11 -10z"/>
<path d="M2065 40 c-3 -5 -1 -10 4 -10 6 0 11 5 11 10 0 6 -2 10 -4 10 -3 0
-8 -4 -11 -10z"/>
</g>
</svg>
