<svg id="Layer_1" data-name="Layer 1" xmlns="http://www.w3.org/2000/svg" xmlns:xlink="http://www.w3.org/1999/xlink" viewBox="0 0 455.467 97.923"><defs><style>.cls-1{fill:#fff;}.cls-2{fill:#ff5800;}.cls-3{fill:url(#linear-gradient);}.cls-4{fill:url(#linear-gradient-2);}.cls-5{fill:url(#linear-gradient-3);}.cls-6{fill:url(#linear-gradient-4);}</style><linearGradient id="linear-gradient" x1="162.549" y1="40.974" x2="192.411" y2="48.975" gradientTransform="matrix(1, 0, 0, -1, 0, 100)" gradientUnits="userSpaceOnUse"><stop offset="0.2" stop-color="#ff5800"/><stop offset="0.24" stop-color="#ff7000"/><stop offset="0.32" stop-color="#ff9500"/><stop offset="0.4" stop-color="#ffb200"/><stop offset="0.47" stop-color="#ffc600"/><stop offset="0.55" stop-color="#ffd300"/><stop offset="0.62" stop-color="gold"/><stop offset="0.66" stop-color="#ffce00"/><stop offset="0.72" stop-color="#ffb600"/><stop offset="0.81" stop-color="#ff8e00"/><stop offset="0.9" stop-color="#ff5800"/></linearGradient><linearGradient id="linear-gradient-2" x1="163.612" y1="38.188" x2="194.85" y2="38.188" gradientTransform="matrix(1, 0, 0, -1, 0, 100)" gradientUnits="userSpaceOnUse"><stop offset="0.09" stop-color="#ff5800"/><stop offset="0.19" stop-color="#ff7907"/><stop offset="0.31" stop-color="#ff990e"/><stop offset="0.4" stop-color="#ffad12"/><stop offset="0.47" stop-color="#ffb414"/><stop offset="0.53" stop-color="#ffad12"/><stop offset="0.62" stop-color="#ff980e"/><stop offset="0.73" stop-color="#ff7707"/><stop offset="0.82" stop-color="#ff5800"/></linearGradient><linearGradient id="linear-gradient-3" x1="163.748" y1="42.808" x2="195.777" y2="36.002" gradientTransform="matrix(1, 0, 0, -1, 0, 100)" gradientUnits="userSpaceOnUse"><stop offset="0.5" stop-color="#ff5800"/><stop offset="0.64" stop-color="#ce056a" stop-opacity="0.99"/><stop offset="0.76" stop-color="#cf0768" stop-opacity="0.99"/><stop offset="0.81" stop-color="#d20d60" stop-opacity="0.99"/><stop offset="0.85" stop-color="#d81753" stop-opacity="0.99"/><stop offset="0.88" stop-color="#e12541" stop-opacity="0.99"/><stop offset="0.91" stop-color="#ec3829"/><stop offset="0.94" stop-color="#f94e0c"/><stop offset="0.95" stop-color="#ff5800"/></linearGradient><linearGradient id="linear-gradient-4" x1="165.057" y1="30.671" x2="196.435" y2="35.08" gradientTransform="matrix(1, 0, 0, -1, 0, 100)" gradientUnits="userSpaceOnUse"><stop offset="0" stop-color="#ff5800"/><stop offset="0.06" stop-color="#fc5400"/><stop offset="0.13" stop-color="#f54700"/><stop offset="0.19" stop-color="#e83300"/><stop offset="0.26" stop-color="#d61600"/><stop offset="0.3" stop-color="#c80000"/><stop offset="0.48" stop-color="#c80000"/><stop offset="0.91" stop-color="#ff5800"/></linearGradient></defs><title>Causewave</title><path id="Shape" class="cls-1" d="M455.467,97.923C322.653,97.923,303.953,0,227.79,0S132.83,97.923,0,97.923Z"/><g id="Symbols"><g id="footer-trim-waves"><g id="footer-causewave"><g id="logo_Causewave" data-name="logo/Causewave"><g id="Causewave"><g id="causeway-logo-copy"><path id="Shape-2" data-name="Shape" class="cls-1" d="M455.467,97.923C322.653,97.923,303.953,0,227.79,0S132.83,97.923,0,97.923Z"/></g></g></g></g></g></g><g id="Layer_2" data-name="Layer 2"><g id="logo"><path class="cls-2" d="M208.125,55.764a11.718,11.718,0,0,0-2.2.206,5.611,5.611,0,0,0-1.7.568l.211,2.129a13.952,13.952,0,0,1,1.7-.386,10.226,10.226,0,0,1,1.524-.114q2.91,0,2.91,2.227v.5a10.259,10.259,0,0,0-1.909-.136,6.452,6.452,0,0,0-4.026,1.136,3.739,3.739,0,0,0-1.477,3.127q0,4.093,5.594,4.093a17.638,17.638,0,0,0,4.729-.683V60.616Q213.489,55.765,208.125,55.764Zm2.454,10.915a6.941,6.941,0,0,1-1.865.227q-2.637,0-2.637-1.91,0-2,2.91-2a5.994,5.994,0,0,1,1.592.135Z"/><polygon class="cls-2" points="214.808 56.082 218.036 56.082 221.174 65.905 224.357 56.082 227.45 56.082 222.63 68.815 219.628 68.815 214.808 56.082"/><path class="cls-2" d="M233.089,55.764a11.736,11.736,0,0,0-2.205.206,5.611,5.611,0,0,0-1.7.568l.227,2.137a13.952,13.952,0,0,1,1.7-.386,10.226,10.226,0,0,1,1.524-.114q2.91,0,2.911,2.227v.5a10.355,10.355,0,0,0-1.91-.135A6.452,6.452,0,0,0,229.61,61.9a3.739,3.739,0,0,0-1.477,3.127q0,4.094,5.594,4.093a17.638,17.638,0,0,0,4.729-.683V60.624Q238.453,55.764,233.089,55.764Zm2.454,10.915a6.948,6.948,0,0,1-1.866.227q-2.636,0-2.636-1.91,0-2,2.91-2a6,6,0,0,1,1.592.135Z"/><path class="cls-2" d="M249.712,61.312a3.357,3.357,0,0,0-.659-2.387,3.28,3.28,0,0,0-2.345-.659,6.261,6.261,0,0,0-.977.091,10.007,10.007,0,0,0-1.069.227V68.815h-2.954V56.721a12.791,12.791,0,0,1,2.584-.706,16.667,16.667,0,0,1,2.82-.261q5.547,0,5.547,5v8.048h-2.947Z"/><path class="cls-2" d="M259.941,55.764a11.726,11.726,0,0,0-2.2.206,5.611,5.611,0,0,0-1.7.568l.227,2.137a13.952,13.952,0,0,1,1.7-.386,10.226,10.226,0,0,1,1.524-.114q2.91,0,2.91,2.227v.5a10.349,10.349,0,0,0-1.91-.135,6.449,6.449,0,0,0-4.025,1.136,3.74,3.74,0,0,0-1.478,3.127q0,4.094,5.594,4.093a17.638,17.638,0,0,0,4.729-.683V60.624Q265.308,55.764,259.941,55.764ZM262.4,66.679a6.953,6.953,0,0,1-1.866.227q-2.637,0-2.637-1.91,0-2,2.911-2a6,6,0,0,1,1.592.135Z"/><path class="cls-2" d="M276.312,51.171v4.867a6.92,6.92,0,0,0-2.137-.261,6.274,6.274,0,0,0-4.729,1.887,6.832,6.832,0,0,0-1.824,4.935,6.382,6.382,0,0,0,1.775,4.864,7.267,7.267,0,0,0,5.185,1.683,18.182,18.182,0,0,0,4.689-.682V51.171Zm0,15.323a6.1,6.1,0,0,1-1.824.182q-3.776,0-3.776-4.137a4.824,4.824,0,0,1,.977-3.228,3.4,3.4,0,0,1,2.752-1.136,4.887,4.887,0,0,1,1.865.317Z"/><path class="cls-2" d="M293,61.768a6.317,6.317,0,0,0-1.454-4.388,5.054,5.054,0,0,0-3.955-1.616,5.508,5.508,0,0,0-4.343,1.824,7.2,7.2,0,0,0-1.616,4.951,6.015,6.015,0,0,0,6.639,6.592,10.8,10.8,0,0,0,3.963-.725l-.318-2.227a10.458,10.458,0,0,1-3.411.544q-3.735,0-3.827-3.366H293Zm-8.322-.639a3.785,3.785,0,0,1,.886-2.274,2.5,2.5,0,0,1,1.933-.819,2.433,2.433,0,0,1,1.91.819,3.3,3.3,0,0,1,.727,2.274Z"/><path class="cls-3" d="M171.544,50.642q-1.506,2.934-2.442,4.69a26.405,26.405,0,0,1-1.72,2.837,8.733,8.733,0,0,1-1.662,1.788,24.189,24.189,0,0,1-2.222,1.524l-.5-.771a19.247,19.247,0,0,0,1.532-1.243,10.87,10.87,0,0,0,1.462-1.707,32.383,32.383,0,0,0,1.811-2.923q1.026-1.824,2.537-4.951A30.366,30.366,0,0,1,172.4,46.2a12.625,12.625,0,0,1,1.876-2.261,5.65,5.65,0,0,1,1.754-1.134,4.344,4.344,0,0,1,1.714-.294,4.245,4.245,0,0,1,1.649.409,5.811,5.811,0,0,1,1.788,1.493,20.613,20.613,0,0,1,2.165,3.194q1.2,2.085,2.832,5.472a35.918,35.918,0,0,0,2,3.647,13.189,13.189,0,0,0,1.922,2.424,8.955,8.955,0,0,0,2.158,1.547,15.784,15.784,0,0,0,2.678,1.042l.636,1.071a14.141,14.141,0,0,1-3.259-.706,8.492,8.492,0,0,1-2.661-1.563,13.894,13.894,0,0,1-2.381-2.718,33.038,33.038,0,0,1-2.374-4.168q-1.514-3.039-2.566-4.951a24.164,24.164,0,0,0-1.871-2.955A5.62,5.62,0,0,0,179,44.316a2.753,2.753,0,0,0-1.3-.4,2.988,2.988,0,0,0-1.368.281,4.621,4.621,0,0,0-1.4,1.094,14.9,14.9,0,0,0-1.563,2.085Q172.531,48.7,171.544,50.642Z"/><path class="cls-4" d="M186.471,63.461a25.434,25.434,0,0,0,4.387-.219,19.336,19.336,0,0,0,3.843-.9l.149.795q-3,1.916-8.426,1.725A18.913,18.913,0,0,1,182.2,64.3a18.149,18.149,0,0,1-3.158-1.141q-1.042-.474-1.98-.99t-1.918-.946a16.375,16.375,0,0,0-1.977-.729A8.719,8.719,0,0,0,171,60.152a16.261,16.261,0,0,0-3.447.261,19.025,19.025,0,0,0-3.442.951l-.5-.589.936-.451a11.348,11.348,0,0,1,3.087-1.209,12.619,12.619,0,0,1,3.408-.365,10.621,10.621,0,0,1,2.418.349,14.059,14.059,0,0,1,2.1.753q.99.455,1.98.991t2.066,1.016a22.351,22.351,0,0,0,2.936,1.071A16.549,16.549,0,0,0,186.471,63.461Z"/><path class="cls-5" d="M188.6,52.732a2.86,2.86,0,0,0-1.5.364,6.67,6.67,0,0,0-1.649,1.457,29.023,29.023,0,0,0-2.184,2.931q-1.242,1.867-3.1,4.831a24.53,24.53,0,0,1-4.653,5.836,6.611,6.611,0,0,1-4.5,1.72,6.69,6.69,0,0,1-4.69-2.491A15.594,15.594,0,0,1,163,60.71l1.391.26a15.751,15.751,0,0,0,2.921,5.394,5.33,5.33,0,0,0,3.739,2.084,5.442,5.442,0,0,0,3.713-1.54,23.159,23.159,0,0,0,4.148-5.247q2.043-3.255,3.426-5.3a27.5,27.5,0,0,1,2.434-3.161,6.192,6.192,0,0,1,1.938-1.519,4.447,4.447,0,0,1,1.939-.349q2.362.084,4.195,2.825a27.733,27.733,0,0,1,3.246,8.371l-1.511-.623a28.18,28.18,0,0,0-2.866-6.886Q190.261,52.79,188.6,52.732Z"/><path class="cls-6" d="M183.261,73.888a3.485,3.485,0,0,0,2.173-.737,15.041,15.041,0,0,0,2.73-2.957q1.284-1.668,2.111-2.759t1.563-1.923q.729-.831,1.5-1.595t1.9-1.863l.86.469q-1.043,1.194-1.756,2.025t-1.4,1.706q-.687.876-1.514,1.967t-2.115,2.8a15.8,15.8,0,0,1-3.127,3.338,4.73,4.73,0,0,1-2.988.927,5.018,5.018,0,0,1-1.59-.3,6.245,6.245,0,0,1-1.652-1.024,21.126,21.126,0,0,1-2.2-2.142q-1.266-1.383-3.2-3.6-1.475-1.678-2.66-2.817a13.169,13.169,0,0,0-2.366-1.839,11.327,11.327,0,0,0-2.48-1.1,16.825,16.825,0,0,0-3.033-.586l.344-1.042a23.715,23.715,0,0,1,3.181.461,9.608,9.608,0,0,1,2.637,1.011,13.844,13.844,0,0,1,2.52,1.865,35.284,35.284,0,0,1,2.829,2.984q1.936,2.22,3.163,3.535t2.033,2.025a5,5,0,0,0,1.37.925A3.571,3.571,0,0,0,183.261,73.888Z"/></g></g></svg>