<svg id="Layer_1" data-name="Layer 1" xmlns="http://www.w3.org/2000/svg" viewBox="0 0 20 18.182"><defs><style>.cls-1{fill:#c1c1c1;}</style></defs><title>Desktop_Header-LinkedIn</title><rect class="cls-1" x="0.506" y="5.832" width="3.896" height="12.35"/><path class="cls-1" d="M15.054,5.713c-2.233,0-3.634,1.21-3.892,2.056V5.832H6.783c.057,1.027,0,12.35,0,12.35h4.379V11.498a2.7881,2.7881,0,0,1,.095-1.009,2.2311,2.2311,0,0,1,2.11-1.516c1.521,0,2.213,1.145,2.213,2.816v6.392H20V11.313c0-3.824-2.176-5.6-4.946-5.6"/><path class="cls-1" d="M2.382,0A2.1783,2.1783,0,0,0,0,2.146,2.1558,2.1558,0,0,0,2.327,4.287h.027A2.1719,2.1719,0,0,0,4.732,2.143,2.1637,2.1637,0,0,0,2.382,0"/></svg>