<svg id="Layer_1" data-name="Layer 1" xmlns="http://www.w3.org/2000/svg" viewBox="0 0 16.9785 20.7553"><defs><style>.cls-1{fill:#c1c1c1;}</style></defs><title>Desktop_Header-YouTube</title><g id="Icon_Social-Media_Youtube" data-name="Icon/Social-Media/Youtube"><g id="Vector-Smart-Object"><g id="YouTube_Logo" data-name="YouTube Logo"><g id="You"><path id="Shape" class="cls-1" d="M12.7252,1.9281V6.2946c-.2289.3216-.4158.5-.6226.5-.1373,0-.2051-.0581-.23-.2173v-4.65h-1.08V6.4647a2.2756,2.2756,0,0,0,.12.8332.6791.6791,0,0,0,.6779.4385,1.5981,1.5981,0,0,0,1.1352-.7046v.6238h1.08V1.9281Z"/><path id="Shape-2" data-name="Shape" class="cls-1" d="M8.4608,1.8863a1.3628,1.3628,0,0,0-1.194.5522,2.2693,2.2693,0,0,0-.34,1.366L6.9255,5.8409a2.1087,2.1087,0,0,0,.327,1.3158,1.5067,1.5067,0,0,0,1.2082.597,1.5233,1.5233,0,0,0,1.2168-.597,2.1357,2.1357,0,0,0,.3184-1.3158V3.7995a2.2764,2.2764,0,0,0-.3411-1.3609A1.4349,1.4349,0,0,0,8.4608,1.8863Zm0,4.9168c-.3355,0-.5116-.281-.4548-.8484V3.686c-.0566-.5671.1195-.8325.4548-.8325s.5123.2658.4554.8329L8.9156,5.9547c.0569.5667-.1195.8481-.455.8481Z"/><path id="Shape-3" data-name="Shape" class="cls-1" d="M5.9589,0,5.1649,2.9871,4.367,0H3.173c.2427.7128,1.4214,4.5366,1.4214,4.5366v3.119H5.7316V4.5366L7.153,0Z"/></g><g id="Tube"><path id="Shape-4" data-name="Shape" class="cls-1" d="M10.235,13.677a.8006.8006,0,0,0-.5357.2587l-.0011,3.439a.7931.7931,0,0,0,.537.2587c.2968,0,.4309-.2173.4309-.7844V14.4106C10.6658,13.8435,10.5318,13.677,10.235,13.677Z"/><path id="Shape-5" data-name="Shape" class="cls-1" d="M14.4753,14.3586c0-.5242-.1358-.6816-.477-.6816-.3439,0-.49.1445-.49.6745v.6272l.9666-.0011Z"/><path id="Shape-6" data-name="Shape" class="cls-1" d="M16.8088,11.4565a3.6319,3.6319,0,0,0-.6749-1.6732,2.4375,2.4375,0,0,0-1.7012-.714c-2.3758-.1705-5.94-.1705-5.94-.1705H8.4856s-3.5639,0-5.94.1705a2.4377,2.4377,0,0,0-1.7012.714A3.6307,3.6307,0,0,0,.17,11.4565,25.3133,25.3133,0,0,0,0,14.1849v1.2789a25.3122,25.3122,0,0,0,.17,2.7284,3.6306,3.6306,0,0,0,.6748,1.6732,2.89,2.89,0,0,0,1.8721.72c1.3583.13,5.7726.1695,5.7726.1695s3.5676-.0054,5.9435-.1756a2.4374,2.4374,0,0,0,1.7012-.7142,3.6319,3.6319,0,0,0,.6749-1.6732,25.3453,25.3453,0,0,0,.17-2.7282V14.1849a25.3461,25.3461,0,0,0-.17-2.7284Zm-13.08,7.0371H2.592V11.9721H1.3979V10.896L4.98,10.8947v1.0775H3.7291Zm4.0935,0h-1.08V17.87a1.5981,1.5981,0,0,1-1.1352.7047.6791.6791,0,0,1-.6779-.4385,2.2752,2.2752,0,0,1-.12-.8332v-4.48h1.08v4.5933c.0252.1592.093.2173.23.2173.2068,0,.3939-.1792.6226-.5v-4.31H7.8229Zm3.9232-1.7012a4.35,4.35,0,0,1-.1137,1.1342.844.844,0,0,1-.8468.64A1.4632,1.4632,0,0,1,9.7,17.9226l-.0014.5707H8.6757V10.8947H9.6992l-.0011,2.4773a1.4732,1.4732,0,0,1,1.0876-.64.8331.8331,0,0,1,.8228.6605,3.9674,3.9674,0,0,1,.1377,1.1317Zm2.2617.8411a.4421.4421,0,0,0,.46-.4119c.01-.0559.0077-.3008.0077-.7128h1.08V16.67a6.44,6.44,0,0,1-.0365.6677,1.46,1.46,0,0,1-.2408.6151,1.4252,1.4252,0,0,1-1.245.6146,1.475,1.475,0,0,1-1.246-.58,2.0929,2.0929,0,0,1-.3589-1.3073V14.6941a2.275,2.275,0,0,1,.3462-1.3609,1.4761,1.4761,0,0,1,1.2331-.593,1.442,1.442,0,0,1,1.2149.593,2.2186,2.2186,0,0,1,.3345,1.3353v1.159H13.5087V16.846c-.0036.5239.1457.7874.4991.7874Z"/></g></g></g></g></svg>